<svg width="26" height="30" viewBox="0 0 26 30" fill="none" xmlns="http://www.w3.org/2000/svg">
<path d="M24.1431 25.2907L24.8174 23.0412C26.3942 17.7806 26.3942 12.2194 24.8174 6.95877L24.1431 4.7093L25.8827 1.19221C26.1678 0.615586 25.6045 0 24.793 0H19.1293V2.76469C19.1293 3.25201 18.6082 3.64705 17.9655 3.64705C17.3228 3.64705 16.8017 3.25201 16.8017 2.76469V0H14.1638V2.76469C14.1638 3.25201 13.6427 3.64705 13 3.64705C12.3573 3.64705 11.8362 3.25201 11.8362 2.76469V0H9.19831V2.76469C9.19831 3.25201 8.67724 3.64705 8.03453 3.64705C7.39181 3.64705 6.87074 3.25201 6.87074 2.76469V0H1.207C0.395221 0 -0.16774 0.61582 0.11731 1.19221L1.85693 4.7093L1.18264 6.95877C-0.394212 12.2194 -0.394212 17.7806 1.18264 23.0412L1.85693 25.2907L0.11731 28.8078C-0.167817 29.3843 0.395454 30 1.207 30H6.87074V27.2353C6.87074 26.748 7.39181 26.3529 8.03453 26.3529C8.67724 26.3529 9.19831 26.748 9.19831 27.2353V30H11.8362V27.2353C11.8362 26.748 12.3573 26.3529 13 26.3529C13.6427 26.3529 14.1638 26.748 14.1638 27.2353V30H16.8017V27.2353C16.8017 26.748 17.3228 26.3529 17.9655 26.3529C18.6082 26.3529 19.1293 26.748 19.1293 27.2353V30H24.793C25.6048 30 26.1677 29.3842 25.8827 28.8078L24.1431 25.2907ZM8.03453 7.55859H17.9655C18.6082 7.55859 19.1293 7.95211 19.1293 8.4375C19.1293 8.92289 18.6082 9.31641 17.9655 9.31641H8.03453C7.39181 9.31641 6.87074 8.92289 6.87074 8.4375C6.87074 7.95211 7.39181 7.55859 8.03453 7.55859ZM17.9655 22.4414H8.03453C7.39181 22.4414 6.87074 22.0479 6.87074 21.5625C6.87074 21.0771 7.39181 20.6836 8.03453 20.6836H17.9655C18.6082 20.6836 19.1293 21.0771 19.1293 21.5625C19.1293 22.0479 18.6082 22.4414 17.9655 22.4414ZM19.2844 15.9412C19.2844 16.5761 18.4256 17.001 17.6613 16.7519L15.6092 16.0834C14.5623 17.0139 13.14 17.7647 11.5079 17.7647C9.84041 17.7647 8.29343 17.0055 6.90744 15.5064C6.64039 15.2176 6.62588 14.8358 6.87066 14.5358C6.94522 14.4444 8.72861 12.2961 11.4636 12.2365C12.9462 12.204 14.3364 12.7695 15.604 13.9182L17.6612 13.248C18.428 12.9983 19.2844 13.4251 19.2844 14.0588V15.9412H19.2844Z" fill="#034115"/>
<path d="M11.5303 14.0044C10.6618 14.0233 9.83905 14.5537 9.32202 14.9955C10.0705 15.6601 10.8052 15.9961 11.5126 15.9961C12.37 15.9961 13.1994 15.4924 13.7692 15.0042C13.0036 14.3245 12.2505 13.9893 11.5303 14.0044Z" fill="#034115"/>
</svg>
