<?xml version="1.0" standalone="no"?>
<!DOCTYPE svg PUBLIC "-//W3C//DTD SVG 20010904//EN"
 "http://www.w3.org/TR/2001/REC-SVG-20010904/DTD/svg10.dtd">
<svg version="1.0" xmlns="http://www.w3.org/2000/svg"
 width="680.000000pt" height="451.000000pt" viewBox="0 0 680.000000 451.000000"
 preserveAspectRatio="xMidYMid meet">

<g transform="translate(0.000000,451.000000) scale(0.100000,-0.100000)"
fill="#000000" stroke="none">
<path d="M258 4492 c-3 -10 -24 -23 -51 -31 -26 -7 -47 -17 -47 -23 0 -5 -5
-6 -11 -2 -6 3 -9 15 -6 25 6 21 -19 47 -33 33 -4 -5 -10 -23 -11 -40 -3 -25
4 -39 29 -65 49 -50 40 -78 -13 -43 -13 9 -29 31 -35 50 -6 19 -18 34 -26 34
-9 0 -12 5 -9 11 7 10 -21 38 -37 39 -5 0 -8 -105 -8 -234 0 -231 0 -234 23
-248 30 -20 77 -31 77 -18 0 5 -4 10 -10 10 -22 0 -8 28 19 40 18 7 31 21 33
33 3 19 8 21 48 18 25 -1 48 -7 51 -13 3 -5 13 2 22 15 14 22 14 24 -4 35 -25
16 -24 39 2 52 16 9 25 8 40 -6 13 -12 16 -21 9 -28 -14 -14 -12 -26 4 -26 8
0 16 7 20 15 3 8 15 15 26 15 21 0 27 14 10 25 -5 3 -10 17 -10 31 0 22 4 24
45 24 32 0 51 6 65 20 23 23 29 24 67 9 20 -7 24 -12 14 -19 -11 -6 -8 -14 13
-35 15 -15 29 -40 33 -56 3 -16 9 -29 14 -29 5 0 9 -7 9 -15 0 -10 11 -15 35
-15 40 0 41 2 18 36 -15 23 -15 26 0 42 13 12 36 16 98 17 75 0 82 2 90 23 10
26 3 27 -50 11 -24 -7 -53 -8 -82 -2 -57 11 -60 36 -4 44 71 9 123 38 127 69
4 26 1 29 -53 45 -40 12 -71 15 -103 11 -35 -6 -47 -4 -52 7 -3 8 -20 14 -41
15 -20 1 -43 8 -52 15 -9 8 -29 17 -44 21 -25 6 -28 10 -22 34 6 25 6 26 -13
9 -28 -26 -69 -22 -76 7 -5 21 -11 23 -70 24 -52 1 -65 -2 -68 -16z m96 -161
c22 -24 30 -67 15 -77 -7 -4 -41 -9 -76 -11 -50 -3 -65 0 -69 12 -8 21 3 60
22 80 20 20 89 17 108 -4z m-170 -109 c6 -9 -21 -35 -47 -45 -10 -4 -22 -18
-27 -32 -5 -14 -14 -25 -19 -25 -14 0 -62 64 -51 68 6 2 10 12 10 23 0 17 8
19 64 19 36 0 67 -4 70 -8z m-94 -127 c0 -8 -7 -15 -16 -15 -14 0 -14 3 -4 15
7 8 14 15 16 15 2 0 4 -7 4 -15z"/>
<path d="M808 4503 c6 -2 18 -2 25 0 6 3 1 5 -13 5 -14 0 -19 -2 -12 -5z"/>
<path d="M880 4491 c0 -14 10 -22 32 -26 45 -10 69 -27 63 -45 -5 -16 41 -50
67 -50 7 0 26 14 42 30 23 23 32 27 43 18 10 -8 20 -8 38 2 33 18 22 30 -26
30 -32 0 -41 4 -48 23 -5 12 -7 25 -4 30 2 4 -43 7 -101 7 -98 0 -106 -1 -106
-19z"/>
<path d="M1160 4500 c0 -5 4 -10 9 -10 5 0 26 -16 47 -35 43 -41 55 -42 92
-15 25 19 33 20 79 9 l51 -12 -24 -26 c-14 -15 -22 -32 -18 -41 3 -8 8 -20 10
-25 2 -6 -8 -18 -23 -27 -24 -14 -31 -14 -76 -1 -40 12 -55 12 -73 3 -25 -14
-44 -7 -44 16 0 11 -6 13 -22 8 -28 -8 -38 -22 -38 -51 0 -14 6 -23 15 -23 21
0 94 -80 88 -96 -7 -18 -66 -44 -100 -44 -16 0 -34 -5 -41 -12 -6 -6 -37 -20
-68 -29 -65 -20 -104 -12 -104 21 0 23 -21 26 -50 8 -16 -10 -24 -10 -40 0
-21 13 -68 16 -94 6 -20 -8 -21 -38 -1 -54 23 -19 18 -30 -20 -46 -35 -14 -45
-36 -24 -50 6 -3 9 -14 6 -24 -3 -13 5 -20 35 -29 45 -14 43 -26 -7 -35 -27
-5 -41 -2 -63 14 -33 25 -99 25 -94 1 2 -9 -4 -12 -19 -8 -35 9 -70 -13 -68
-42 5 -62 4 -62 -61 -57 -38 3 -84 16 -120 33 -60 28 -75 48 -43 56 10 3 4 5
-14 6 -18 0 -44 -4 -58 -11 -21 -10 -27 -9 -38 6 -12 17 -75 35 -124 36 l-23
0 0 -434 0 -434 38 -24 c26 -16 52 -23 88 -23 56 0 88 -18 81 -46 -3 -10 1
-26 8 -35 11 -15 16 -16 44 -5 40 17 61 2 61 -44 0 -39 11 -45 65 -36 31 5 43
13 54 36 8 17 20 34 28 38 18 11 7 27 -18 27 -10 0 -19 7 -19 15 0 8 -8 15
-17 16 -14 0 -15 2 -3 6 8 4 22 16 32 27 18 21 18 21 33 2 15 -19 16 -19 43 7
16 16 39 27 55 27 20 0 28 6 32 23 5 17 22 31 57 46 l50 22 64 -42 c63 -40 64
-42 64 -85 0 -40 2 -44 24 -44 26 0 56 37 56 69 0 34 39 61 87 61 33 0 45 5
54 21 10 20 12 20 50 -20 23 -24 39 -50 39 -65 0 -13 7 -27 16 -30 10 -4 14
-15 12 -33 -2 -22 2 -28 24 -34 28 -7 39 0 51 34 4 9 14 17 22 17 9 0 14 4 11
9 -7 11 36 23 46 13 4 -4 1 -21 -8 -37 -13 -26 -13 -31 -1 -39 11 -7 12 -15 4
-37 -9 -22 -8 -36 5 -62 15 -32 20 -35 80 -42 35 -4 106 -9 158 -10 52 -2 125
-6 161 -10 49 -4 73 -2 95 10 36 19 48 19 63 1 16 -19 70 -31 82 -19 6 6 6 32
1 67 -7 44 -6 64 6 91 14 31 18 33 51 28 20 -3 41 -10 48 -15 6 -5 23 -6 38
-2 15 4 37 1 51 -7 17 -9 28 -9 35 -2 8 8 25 6 60 -5 47 -15 50 -15 100 8 49
24 50 25 30 38 -48 32 0 88 54 64 14 -6 25 -18 25 -27 0 -8 9 -15 20 -15 13 0
17 5 14 14 -8 21 14 56 34 56 10 0 28 7 41 16 19 14 25 14 32 3 5 -8 9 -23 9
-34 0 -11 4 -26 9 -33 6 -10 11 -6 19 17 9 25 16 31 41 31 22 0 29 -4 25 -15
-9 -23 7 -41 20 -23 6 8 21 20 33 27 24 12 22 36 -4 58 -13 10 -13 15 1 35 9
12 16 33 16 45 0 19 -5 23 -29 23 -58 0 -59 58 -1 79 22 7 30 16 28 28 -2 11
-11 17 -21 15 -24 -4 -22 30 3 46 11 7 20 23 20 37 0 20 -7 26 -42 36 -24 6
-54 17 -68 24 -14 7 -44 15 -67 19 -39 6 -43 4 -43 -14 0 -17 7 -20 40 -20 47
0 50 -12 13 -45 l-28 -23 23 -24 c12 -13 22 -30 22 -36 0 -7 11 -17 25 -22 29
-11 34 -39 8 -41 -34 -2 -48 3 -74 27 -14 13 -30 24 -36 24 -20 0 -26 41 -9
58 14 14 14 17 -2 28 -14 11 -15 16 -5 33 10 16 10 23 -2 35 -9 9 -11 17 -5
21 6 4 5 16 -5 34 -8 16 -11 31 -8 34 3 4 0 13 -7 22 -7 8 -9 22 -6 31 4 9 -1
28 -9 41 -15 22 -14 25 11 47 47 40 13 73 -81 79 -42 2 -77 17 -42 17 10 0 17
4 17 9 0 4 19 12 43 18 l42 9 -42 14 c-43 13 -43 13 -43 63 l0 49 -32 -5 c-18
-3 -45 -9 -61 -12 -24 -7 -28 -4 -33 24 -5 23 -16 35 -50 52 -46 22 -89 71
-81 93 3 7 2 31 -3 54 -4 24 -3 45 2 48 5 3 4 12 -3 20 -9 11 -8 14 4 14 9 0
32 16 52 35 21 19 46 37 56 40 10 4 19 15 19 25 0 10 9 22 21 25 24 8 20 29
-7 33 -11 2 -25 12 -32 23 -11 17 -9 21 13 29 36 14 50 13 65 -5 19 -23 48
-19 52 8 3 19 8 22 41 19 32 -3 37 -1 37 17 0 20 -5 21 -115 21 -94 0 -117 -3
-121 -15 -4 -8 -1 -22 5 -29 16 -20 -2 -29 -39 -21 -30 7 -38 19 -20 30 6 3
10 13 10 21 0 20 -130 19 -170 -1 -29 -15 -35 -30 -31 -82 3 -27 -13 -37 -38
-23 -12 6 -22 6 -25 1 -11 -17 5 -39 35 -50 16 -5 29 -17 29 -25 0 -9 8 -16
18 -16 32 0 64 -30 58 -55 -4 -16 1 -27 19 -41 l24 -18 -22 -41 c-29 -52 -36
-57 -60 -34 -11 10 -25 15 -31 12 -7 -4 -6 -8 2 -11 7 -2 12 -12 12 -23 0 -26
-34 -25 -51 2 -11 15 -26 21 -62 22 -44 2 -47 4 -47 30 0 23 -4 27 -27 27 -16
0 -35 5 -43 10 -13 8 -12 10 3 10 9 0 17 4 17 8 0 5 12 14 26 21 23 10 25 15
20 49 -6 35 -38 74 -68 85 -21 7 -5 16 46 26 59 11 63 15 42 47 -10 14 -15 28
-12 32 3 3 6 2 6 -2 0 -4 9 -2 20 4 11 6 20 20 20 30 0 17 -7 20 -53 20 -41 0
-55 -4 -64 -19 -14 -23 4 -45 30 -35 29 11 28 -16 -3 -46 l-30 -30 -26 23
c-15 12 -32 28 -40 35 -7 6 -20 12 -29 12 -8 0 -18 7 -21 15 -15 38 -59 45
-281 45 -135 0 -213 -4 -213 -10z m410 -152 c18 -19 22 -20 30 -8 5 8 10 12
10 8 0 -3 3 -13 6 -22 4 -12 0 -16 -15 -16 -12 0 -21 4 -21 8 0 5 -13 7 -29 4
-20 -3 -30 1 -35 13 -14 39 22 47 54 13z m155 -56 c5 -12 15 -22 21 -22 12 0
-16 -94 -34 -112 -6 -6 -36 -16 -67 -24 -52 -11 -60 -11 -81 4 -33 24 -49 65
-34 91 14 26 30 26 74 0 l35 -21 41 33 c45 36 49 48 20 56 -25 7 -27 26 -2 21
9 -2 21 -13 27 -26z m-333 -80 c-3 -33 -3 -33 32 -26 40 7 40 8 25 -33 -8 -24
-17 -32 -45 -36 -41 -7 -90 12 -122 45 l-22 24 27 25 c36 31 52 38 83 36 22
-2 25 -6 22 -35z m433 -112 c-3 -5 -10 -10 -16 -10 -5 0 -9 5 -9 10 0 6 7 10
16 10 8 0 12 -4 9 -10z m-210 -50 c35 33 69 24 73 -18 3 -28 -3 -39 -29 -63
-22 -20 -30 -34 -26 -49 7 -28 -18 -26 -48 5 -28 27 -33 75 -13 122 11 28 12
28 16 5 l4 -24 23 22z m-274 -72 c5 -10 14 -16 20 -13 5 4 9 1 9 -4 0 -6 6
-11 14 -11 13 0 26 -23 32 -59 3 -17 -31 -44 -61 -49 -11 -2 -55 -5 -99 -7
-87 -4 -98 -9 -72 -28 16 -12 17 -17 6 -37 -9 -18 -10 -25 -1 -28 6 -2 11 -9
11 -15 0 -6 7 -18 16 -28 11 -12 14 -27 10 -44 -7 -29 -22 -32 -49 -8 -18 17
-19 17 -31 0 -11 -14 -28 -17 -90 -15 -45 0 -83 6 -94 14 -16 12 -15 15 11 39
15 14 41 31 58 37 26 9 33 7 50 -11 23 -24 30 -26 47 -9 19 19 15 41 -7 35
-11 -2 -32 4 -48 14 -15 10 -38 19 -49 19 -12 0 -27 7 -34 15 -17 20 5 65 32
65 11 0 18 7 18 19 0 17 8 20 53 23 47 3 52 5 52 26 0 22 28 52 47 52 12 0 10
-48 -2 -55 -18 -11 -10 -25 14 -25 27 0 42 15 26 25 -20 12 -9 25 23 26 30 2
30 2 5 6 -36 6 -37 35 -2 62 24 19 27 19 50 4 14 -9 29 -24 35 -35z m704 -5
c5 -13 18 -23 27 -23 14 0 18 -8 18 -40 0 -22 5 -40 10 -40 6 0 10 -7 10 -15
0 -8 12 -17 28 -20 15 -4 43 -13 62 -22 41 -19 42 -19 97 -21 l43 -2 -2 -60
-2 -60 -49 -15 c-43 -13 -51 -13 -72 1 -14 9 -27 24 -30 35 -4 10 -11 19 -16
19 -5 0 -9 5 -9 10 0 5 3 9 8 8 11 -4 62 38 62 50 0 12 -149 4 -166 -9 -6 -5
-9 -20 -6 -34 3 -20 10 -25 32 -25 46 0 45 -27 -1 -71 -62 -58 -119 -66 -119
-16 0 33 22 49 54 41 23 -5 26 -3 26 20 0 26 -13 35 -25 16 -3 -5 -19 -10 -36
-10 -25 0 -29 4 -29 28 0 26 -2 28 -36 24 -29 -4 -38 -10 -46 -34 -10 -27 -13
-29 -56 -26 -40 3 -47 6 -53 29 -5 19 -1 36 12 55 10 17 16 38 13 50 -6 23 13
33 94 49 33 7 33 7 13 22 -40 28 -15 73 37 65 23 -3 33 -12 41 -33 9 -25 15
-29 50 -29 22 0 43 5 46 10 10 16 -36 49 -66 50 -27 0 -45 23 -33 41 11 18 59
5 69 -18z m-1205 -3 c0 -5 -4 -10 -10 -10 -5 0 -10 5 -10 10 0 6 5 10 10 10 6
0 10 -4 10 -10z m145 -69 c7 -12 -12 -24 -25 -16 -11 7 -4 25 10 25 5 0 11 -4
15 -9z m659 -56 c18 -13 18 -15 -3 -48 -11 -19 -21 -42 -21 -50 0 -9 -9 -21
-21 -27 -19 -11 -20 -9 -18 17 1 15 -3 41 -10 56 -21 54 26 88 73 52z m-334
-55 c0 -5 7 -16 16 -25 21 -20 14 -26 -28 -28 -27 -2 -34 2 -36 20 -4 26 17
53 35 46 7 -3 13 -9 13 -13z m-747 -9 c3 -13 0 -18 -12 -16 -20 3 -28 35 -8
35 8 0 17 -9 20 -19z m193 8 c7 -12 -12 -29 -33 -29 -7 0 -17 9 -23 20 -10 18
-8 20 19 20 16 0 33 -5 37 -11z m-258 -56 c4 -25 22 -32 22 -9 0 27 22 29 41
5 10 -13 19 -28 19 -32 0 -18 -31 -17 -73 3 -25 12 -50 19 -55 16 -6 -3 -16 1
-23 10 -10 13 -10 17 2 25 25 17 64 6 67 -18z m1808 -192 c-9 -13 -43 -15 -51
-2 -3 5 2 17 11 26 15 14 19 15 32 2 8 -8 11 -20 8 -26z m-1224 -16 c21 -10
40 -27 44 -37 3 -10 12 -18 20 -18 8 0 14 -9 14 -20 0 -29 -19 -25 -31 7 -6
16 -13 23 -17 17 -4 -6 -24 -9 -45 -6 -28 3 -41 10 -47 26 -8 21 5 60 18 54 4
-2 24 -12 44 -23z m-438 -1 c3 -9 6 -19 6 -23 0 -11 -47 -31 -54 -24 -8 8 -8
48 1 56 12 13 41 7 47 -9z m1128 -14 c11 -25 9 -60 -4 -60 -18 0 -48 31 -48
51 0 29 40 36 52 9z m167 1 c8 -5 13 -25 13 -51 -1 -43 -15 -70 -37 -70 -7 0
-19 -7 -26 -17 -11 -13 -11 -17 -1 -21 22 -7 41 -32 36 -46 -3 -8 -17 -16 -32
-20 -53 -11 -58 -21 -31 -60 27 -40 53 -46 71 -16 24 39 53 23 51 -27 -1 -16
3 -16 30 1 12 8 33 17 46 21 22 7 23 6 16 -34 -7 -40 -5 -43 35 -80 l42 -38
44 16 c40 14 46 14 54 1 6 -8 9 -24 8 -35 -3 -18 -11 -20 -68 -20 -47 0 -73
-5 -93 -19 -15 -10 -36 -16 -48 -13 -11 3 -64 1 -117 -4 -117 -12 -260 2 -279
28 -21 28 -16 136 7 165 16 21 18 35 13 76 -4 36 -2 57 8 68 7 9 18 26 24 38
6 11 20 22 33 24 12 2 28 12 35 23 10 13 27 19 58 20 57 2 71 13 58 46 -5 15
-8 32 -5 40 6 15 34 17 55 4z m161 0 c0 -25 -14 -41 -36 -41 -17 0 -24 6 -24
18 0 10 3 22 7 25 10 10 53 8 53 -2z m-423 -7 c-3 -3 -12 -4 -19 -1 -8 3 -5 6
6 6 11 1 17 -2 13 -5z m441 -81 c22 -24 22 -26 6 -44 -13 -15 -25 -18 -50 -13
-18 3 -34 1 -38 -5 -12 -18 -24 -12 -40 20 -17 34 -12 45 34 66 32 15 59 8 88
-24z m-2004 -24 c30 -36 32 -46 9 -71 -15 -17 -15 -18 9 -18 14 0 28 7 32 15
8 22 28 18 59 -10 27 -26 35 -62 18 -80 -5 -6 -5 -19 -1 -30 5 -11 9 -14 9 -7
2 22 19 13 35 -18 14 -29 14 -30 -10 -30 -14 0 -27 6 -30 14 -10 26 -45 26
-69 0 -29 -31 -79 -35 -100 -8 -10 14 -14 49 -13 139 2 153 5 160 52 104z
m2367 -12 c-1 -4 -1 -19 -1 -33 0 -22 -2 -25 -15 -14 -16 13 -20 42 -8 54 8 8
25 3 24 -7z m-186 -48 c0 -28 -23 -32 -39 -6 -8 14 -8 20 4 27 22 14 35 6 35
-21z m-55 -8 c0 -23 -17 -31 -53 -24 l-27 5 32 18 c44 23 48 23 48 1z m146
-14 c3 -8 17 -11 39 -9 36 4 73 -14 129 -63 27 -23 28 -26 10 -24 -3 0 -12 -8
-19 -18 -13 -17 -15 -17 -48 0 -32 17 -36 17 -73 2 -22 -9 -50 -13 -66 -10
-40 9 -43 8 -42 -25 1 -31 -17 -53 -52 -64 -27 -8 -54 16 -54 48 0 12 -5 27
-11 33 -17 17 -2 63 20 63 11 0 21 -4 23 -10 2 -5 17 -12 34 -16 30 -6 30 -5
26 29 -3 26 1 39 19 56 26 24 57 28 65 8z m-1016 -17 c0 -20 -44 -50 -64 -44
-30 9 -40 20 -33 38 7 18 97 23 97 6z m57 -146 c-3 -3 -12 -4 -19 -1 -8 3 -5
6 6 6 11 1 17 -2 13 -5z m87 -32 c-2 -84 -5 -92 -36 -121 -42 -39 -75 -41 -84
-4 -6 21 -2 31 19 49 32 28 36 64 7 71 -11 3 -20 8 -20 12 0 14 47 26 80 21
28 -4 35 -10 34 -28z m-1194 -12 c0 -5 -7 -10 -15 -10 -8 0 -15 5 -15 10 0 6
7 10 15 10 8 0 15 -4 15 -10z m1305 -190 c3 -5 -1 -10 -9 -10 -9 0 -16 5 -16
10 0 6 4 10 9 10 6 0 13 -4 16 -10z m-240 -10 c-17 -7 -17 -9 -2 -9 9 -1 17
-5 17 -11 0 -14 -37 -13 -46 1 -7 13 13 29 36 28 10 0 8 -3 -5 -9z m135 -5
c15 -19 3 -102 -13 -86 -7 7 -6 15 3 26 10 13 9 15 -8 15 -11 0 -25 7 -32 15
-11 13 -10 18 6 30 24 18 29 18 44 0z m-80 -5 c0 -5 -7 -7 -15 -4 -8 4 -15 8
-15 10 0 2 7 4 15 4 8 0 15 -4 15 -10z m453 -10 c6 -25 -18 -27 -32 -3 -7 14
-12 15 -25 4 -8 -7 -21 -9 -28 -5 -9 6 -5 10 12 15 47 13 67 10 73 -11z"/>
<path d="M1772 3328 c-17 -17 -15 -28 6 -28 24 0 32 8 25 26 -6 17 -15 18 -31
2z"/>
<path d="M4116 4495 c3 -8 14 -17 25 -20 10 -4 19 -12 19 -18 1 -16 30 23 30
40 0 8 -14 13 -40 13 -30 0 -38 -3 -34 -15z"/>
<path d="M4207 4490 c3 -10 20 -28 39 -39 29 -17 32 -24 25 -43 -10 -28 -37
-35 -59 -15 -20 18 -49 23 -74 14 -10 -4 -25 -9 -33 -12 -8 -2 -15 -14 -15
-25 0 -17 6 -20 44 -20 46 0 61 -15 49 -46 -5 -13 1 -15 38 -13 44 4 44 4 57
-38 8 -24 20 -43 28 -43 8 0 14 -6 14 -12 0 -7 5 -5 11 5 5 9 19 17 29 17 22
0 46 -35 30 -45 -17 -11 -11 -37 8 -33 9 2 15 11 13 19 -2 8 -5 37 -6 64 -2
28 -6 62 -10 76 -8 31 5 33 79 16 34 -8 51 -18 56 -33 5 -12 16 -24 25 -28 13
-4 16 -15 13 -37 -4 -22 -1 -28 9 -24 7 3 20 8 28 11 8 3 15 2 15 -4 0 -6 -4
-12 -10 -14 -7 -2 -13 -37 -19 -110 -1 -5 -8 -8 -16 -8 -8 0 -15 -9 -15 -20 0
-16 -6 -20 -32 -18 -31 3 -33 1 -30 -25 5 -40 -14 -59 -52 -52 -42 7 -57 -5
-63 -54 -5 -36 -10 -43 -34 -48 -34 -7 -39 -30 -6 -35 14 -2 23 -11 25 -26 2
-12 19 -34 37 -48 32 -24 40 -25 95 -19 42 5 67 14 80 27 18 20 19 20 49 2 17
-10 32 -27 32 -39 1 -11 2 -33 3 -50 1 -20 8 -33 23 -40 12 -5 24 -22 27 -39
12 -58 86 -106 86 -56 0 11 -5 20 -10 20 -6 0 -24 10 -40 22 -21 15 -30 30
-30 51 0 15 -7 35 -15 43 -8 9 -15 26 -15 40 0 14 -7 27 -15 30 -8 4 -15 19
-15 34 0 16 -5 32 -11 35 -6 4 -8 13 -5 21 7 19 -37 64 -63 64 -18 0 -21 -6
-21 -38 0 -25 -7 -45 -18 -55 -20 -19 -52 -23 -52 -7 0 5 -6 7 -12 5 -22 -7
-50 21 -46 47 2 15 11 24 26 26 19 3 23 8 18 27 -5 20 -1 24 24 30 16 4 32 11
35 16 4 5 17 9 29 9 13 0 29 7 36 15 17 21 46 19 70 -5 11 -11 28 -20 39 -20
28 0 42 -23 35 -58 -5 -24 -2 -33 10 -38 27 -10 37 8 22 38 -12 23 -12 28 7
47 30 29 10 50 -32 34 -26 -9 -30 -8 -41 12 -16 30 -7 44 24 38 13 -3 27 0 30
6 9 14 59 14 73 0 6 -6 22 -17 35 -23 16 -8 23 -20 23 -41 0 -17 4 -36 8 -42
13 -21 0 -30 -48 -38 -28 -4 -49 -13 -52 -22 -7 -19 22 -43 52 -43 12 0 30 -7
41 -15 18 -14 18 -16 2 -29 -22 -16 -23 -26 -3 -26 8 0 15 5 15 10 0 6 12 15
28 22 15 6 41 17 59 24 46 21 77 17 101 -11 l22 -25 -24 0 c-46 0 -56 -10 -56
-54 l0 -43 -51 -11 c-28 -7 -63 -12 -79 -12 -35 0 -77 -35 -86 -72 -5 -23 -3
-28 14 -28 11 0 25 -7 32 -15 7 -8 20 -15 30 -15 10 0 20 -7 24 -15 3 -8 13
-15 23 -16 24 0 -22 -19 -61 -24 -16 -2 -33 -8 -39 -14 -15 -15 -47 5 -47 29
0 11 -6 20 -13 20 -18 0 -50 -57 -37 -65 16 -10 12 -22 -10 -28 -10 -3 -21 0
-23 7 -2 7 -23 1 -56 -18 l-53 -28 -26 26 c-23 22 -25 29 -15 46 7 10 9 22 4
25 -5 3 -11 0 -13 -6 -3 -8 -16 -6 -43 6 -55 25 -75 44 -75 71 0 21 4 23 43
20 52 -4 77 -14 77 -31 0 -18 30 -27 46 -14 18 15 9 28 -33 45 l-34 15 21 28
c11 16 20 34 20 39 0 17 -32 23 -49 9 -9 -7 -32 -20 -51 -30 -19 -9 -43 -22
-52 -29 -14 -10 -20 -8 -37 13 -11 13 -21 33 -21 44 0 11 -7 29 -15 39 -8 11
-15 29 -15 40 -1 32 -34 70 -54 63 -14 -6 -17 -18 -14 -64 4 -70 -17 -79 -45
-20 -18 36 -39 47 -52 27 -3 -5 -27 -11 -53 -12 l-47 -1 45 -5 45 -4 -39 -12
c-22 -6 -41 -16 -43 -22 -4 -11 65 -39 74 -30 3 3 20 -1 38 -8 18 -8 43 -12
56 -10 18 4 39 -9 87 -53 l64 -58 -21 -22 c-11 -12 -29 -27 -38 -33 -13 -8
-14 -13 -5 -16 30 -13 -4 -23 -63 -17 -55 5 -66 3 -71 -11 -4 -10 1 -24 10
-35 9 -10 13 -21 9 -24 -3 -4 1 -15 9 -24 8 -10 18 -26 21 -35 8 -22 21 -23
36 -4 9 10 9 20 0 40 -17 35 1 57 31 38 11 -6 26 -12 34 -12 36 0 26 -78 -14
-105 -16 -11 -26 -23 -24 -27 3 -4 0 -8 -5 -8 -18 0 -8 -24 17 -41 13 -9 33
-14 43 -12 11 3 27 -1 37 -9 24 -22 102 -31 102 -12 0 13 19 21 70 26 26 3 38
-5 96 -60 39 -38 42 -52 15 -59 -17 -4 -38 -49 -29 -59 2 -2 22 -9 43 -16 32
-10 42 -20 49 -45 11 -38 36 -51 52 -29 12 16 50 22 56 9 6 -15 67 -53 85 -53
10 0 27 -7 37 -15 11 -8 32 -15 46 -15 19 0 30 -7 38 -25 13 -29 22 -30 62
-10 l30 15 -17 35 c-23 47 -9 89 30 93 20 2 27 -1 27 -13 0 -9 7 -24 16 -33
12 -12 15 -27 10 -60 -6 -42 -4 -44 24 -55 23 -9 32 -20 37 -47 10 -49 6 -123
-9 -205 -11 -57 -17 -70 -33 -73 -11 -2 -35 -10 -54 -19 -25 -11 -55 -14 -113
-11 -82 5 -100 14 -91 48 4 14 -3 20 -26 25 -17 3 -33 11 -36 16 -4 5 -13 5
-23 0 -9 -4 -27 -7 -40 -6 -20 2 -22 -1 -16 -28 3 -17 17 -50 30 -74 12 -24
20 -51 17 -59 -6 -16 8 -19 22 -5 6 6 35 14 66 19 46 7 63 5 85 -7 22 -12 53
-15 128 -14 111 3 166 -10 166 -39 0 -19 26 -25 32 -8 5 16 42 19 105 9 32 -5
103 -11 158 -13 69 -2 110 -8 133 -20 18 -9 37 -14 42 -11 6 4 25 2 43 -3 17
-6 78 -13 135 -17 99 -6 102 -5 102 15 0 13 5 20 13 17 6 -2 11 -12 10 -21 -1
-15 5 -17 50 -11 29 4 54 11 57 15 7 10 50 -7 50 -19 0 -5 4 -21 10 -35 11
-31 40 -25 40 8 0 12 6 28 13 35 20 21 -29 54 -72 49 -20 -3 -47 1 -61 9 -14
7 -33 13 -42 13 -9 0 -20 5 -23 10 -10 16 -23 12 -30 -11 l-7 -21 -23 22 c-17
16 -31 21 -48 16 -30 -7 -60 14 -77 54 -16 38 -25 38 -39 -1 -8 -23 -15 -30
-27 -25 -9 3 -27 9 -40 12 -13 3 -24 10 -24 15 0 5 -8 9 -19 9 -36 0 -46 26
-29 80 9 28 12 54 7 61 -16 26 -31 -7 -34 -71 -1 -40 -7 -65 -16 -71 -24 -15
-108 -10 -135 7 -22 15 -26 15 -42 1 -24 -22 -54 -12 -82 26 -32 42 -40 95
-30 200 6 60 5 97 -2 113 -13 28 2 51 35 56 32 4 28 32 -5 36 -36 4 -38 39 -4
71 18 17 37 23 81 24 52 2 59 -1 77 -25 18 -26 57 -41 43 -17 -5 7 10 10 46 8
44 -3 54 0 57 14 2 9 12 17 23 17 15 0 19 7 19 35 0 21 -6 37 -17 43 -11 7
-17 25 -19 58 -4 65 -8 72 -46 82 -19 5 -34 16 -36 26 -5 24 28 47 56 41 17
-4 29 1 42 18 10 13 37 29 60 37 36 12 43 12 57 -3 15 -14 15 -22 5 -50 -16
-44 -16 -43 16 -42 33 0 42 11 42 51 0 26 5 33 26 38 32 8 63 0 92 -27 27 -25
28 -39 2 -55 -31 -19 -25 -42 11 -42 39 0 58 -19 52 -52 -7 -36 12 -66 43 -70
15 -2 32 -11 38 -21 9 -15 6 -22 -18 -41 -23 -19 -26 -27 -18 -42 8 -15 6 -24
-10 -41 l-20 -21 24 -13 c12 -7 28 -19 33 -26 9 -12 15 -10 34 10 27 29 26 74
-1 69 -29 -5 -22 36 7 50 19 9 35 8 67 -2 58 -18 65 -25 73 -70 12 -72 45 -74
64 -3 10 35 16 42 33 40 30 -3 36 29 8 38 -18 6 -21 13 -18 43 3 36 2 37 -34
40 -37 3 -51 23 -27 37 17 11 120 9 128 -2 3 -6 17 -14 30 -18 28 -9 25 13 -4
29 -46 26 -60 67 -33 94 10 10 10 15 -2 22 -27 17 -3 20 29 4 18 -9 44 -14 59
-11 20 4 32 -2 54 -25 15 -17 28 -34 28 -38 0 -5 14 -8 30 -8 25 1 30 5 30 27
0 19 -8 30 -30 39 -16 8 -34 11 -39 8 -5 -3 -11 3 -14 15 -4 13 0 22 11 25 35
11 67 33 70 49 3 14 -3 16 -35 15 -65 -4 -80 -1 -86 20 -4 14 -14 20 -34 20
-16 0 -34 5 -40 11 -7 7 -36 10 -76 7 -52 -3 -70 -9 -96 -31 -55 -46 -82 -32
-73 36 4 23 9 27 31 25 15 -1 42 4 59 11 31 13 32 15 32 80 -1 59 -3 68 -26
84 -32 24 -39 17 -25 -24 6 -17 8 -35 5 -40 -9 -15 -51 -10 -68 7 -19 18 -20
34 -4 69 8 19 18 25 37 23 23 -3 26 1 29 30 2 20 9 32 18 32 8 0 14 -4 14 -9
0 -5 17 -27 38 -49 28 -30 47 -41 82 -46 25 -4 63 -14 85 -22 48 -18 99 -6 89
21 -7 18 0 19 27 5 19 -11 19 -3 19 430 0 421 -1 440 -18 440 -11 0 -29 9 -42
20 -13 11 -34 20 -47 20 -28 0 -40 24 -23 45 9 11 16 12 31 2 10 -6 19 -17 19
-24 0 -7 11 -13 24 -13 13 0 31 -3 40 -6 13 -5 16 1 16 30 l0 36 -94 0 c-91 0
-94 -1 -89 -21 9 -33 -14 -38 -78 -19 -32 10 -67 16 -77 13 -11 -2 -26 3 -35
11 -14 14 -66 16 -430 16 l-415 0 -11 -30 c-7 -20 -17 -30 -30 -30 -14 0 -21
-6 -21 -20 0 -13 7 -20 20 -20 12 0 25 -10 32 -25 17 -37 1 -44 -26 -11 -18
23 -28 28 -48 23 -15 -4 -32 -1 -43 7 -17 13 -18 15 -3 30 9 9 24 16 32 16 11
0 16 9 16 30 l0 30 -129 0 -128 0 7 -40 c7 -39 7 -40 -10 -25 -17 15 -19 15
-29 -4 -6 -11 -11 -24 -11 -30 0 -14 35 -14 60 -1 13 7 24 5 41 -9 20 -16 21
-21 10 -35 -17 -20 -45 -21 -61 -2 -6 8 -18 12 -25 10 -7 -3 -23 0 -35 6 -12
7 -68 13 -124 14 -98 1 -103 0 -114 -22 -9 -21 -8 -22 11 -17 17 4 16 3 -3 -6
-14 -6 -35 -16 -47 -22 -17 -8 -27 -7 -40 5 -10 8 -37 15 -61 16 -38 1 -42 -1
-41 -21 5 -59 -12 -74 -44 -39 -15 16 -15 21 -2 39 13 18 13 25 -1 52 -8 17
-20 31 -25 31 -19 0 -8 18 15 24 38 9 86 -4 86 -24 0 -9 9 -25 20 -35 11 -10
20 -14 20 -8 0 5 14 30 31 56 40 61 34 87 -22 87 -26 0 -42 -5 -45 -15 -4 -10
-20 -15 -45 -15 -21 0 -39 -4 -39 -10 0 -19 -21 -10 -32 15 -9 19 -18 25 -42
24 -17 0 -25 -3 -18 -6 18 -7 15 -38 -8 -58 -20 -18 -50 -14 -50 7 0 6 10 22
22 35 l21 23 -36 0 c-36 0 -51 -20 -27 -35 12 -7 -10 -45 -26 -45 -6 0 -19 -9
-29 -20 -23 -26 -51 -26 -65 0 -10 18 -7 22 17 31 16 5 37 23 47 39 l17 30
-67 0 c-37 0 -83 -5 -101 -12 -27 -10 -38 -10 -53 0 -11 7 -35 12 -54 12 -29
0 -33 -3 -29 -20z m2053 -20 c0 -10 -5 -22 -10 -25 -6 -4 -8 -11 -5 -16 3 -5
-1 -6 -10 -3 -10 4 -14 13 -9 23 3 9 9 24 11 33 7 22 23 13 23 -12z m-645 10
c3 -5 1 -10 -4 -10 -6 0 -11 5 -11 10 0 6 2 10 4 10 3 0 8 -4 11 -10z m533
-17 c2 -7 -5 -16 -15 -20 -10 -3 -25 -12 -34 -19 -13 -12 -18 -11 -35 2 -12 9
-15 17 -8 20 6 3 20 11 30 19 22 17 56 16 62 -2z m-1268 -13 c0 -5 -7 -10 -15
-10 -8 0 -15 5 -15 10 0 6 7 10 15 10 8 0 15 -4 15 -10z m546 -47 c-2 -2 -17
-8 -34 -12 -26 -8 -31 -6 -36 12 -8 32 2 38 39 20 19 -9 33 -18 31 -20z m904
17 c0 -5 -2 -10 -4 -10 -3 0 -8 5 -11 10 -3 6 -1 10 4 10 6 0 11 -4 11 -10z
m-630 -30 c0 -5 -4 -10 -10 -10 -5 0 -10 5 -10 10 0 6 5 10 10 10 6 0 10 -4
10 -10z m954 -10 c17 -6 24 -14 20 -25 -8 -20 -23 -19 -46 2 -33 30 -21 41 26
23z m-2129 -20 c0 -18 -16 -22 -35 -10 -13 9 -13 11 0 20 19 12 35 8 35 -10z
m122 -25 c-15 -15 -12 -50 4 -61 15 -9 10 -24 -8 -24 -22 0 -53 29 -53 51 0
10 9 21 20 24 11 3 20 11 20 16 0 5 7 9 16 9 14 0 14 -2 1 -15z m510 -57 c-3
-7 -5 -2 -5 12 0 14 2 19 5 13 2 -7 2 -19 0 -25z m-224 -3 c1 -5 -6 -11 -15
-13 -11 -2 -18 3 -18 13 0 17 30 18 33 0z m667 -40 c0 -8 -9 -15 -20 -15 -11
0 -20 7 -20 15 0 8 9 15 20 15 11 0 20 -7 20 -15z m171 5 c19 -11 27 -50 10
-50 -5 0 -12 -9 -16 -20 -8 -26 -57 -80 -72 -80 -7 0 -13 -4 -13 -9 0 -5 -8
-8 -17 -7 -13 1 -19 -8 -21 -33 -3 -30 -1 -33 17 -28 16 4 21 0 21 -13 0 -30
-33 -61 -85 -79 -28 -10 -59 -22 -69 -26 -17 -7 -18 -5 -12 20 4 16 16 35 26
42 10 7 32 38 49 68 29 52 30 57 17 83 -8 16 -22 34 -30 41 -20 17 -21 31 -1
31 7 0 18 7 23 16 7 13 13 12 40 -11 28 -23 37 -25 77 -20 41 7 64 25 31 25
-7 0 -16 11 -18 25 -7 36 6 44 43 25z m-473 -29 c6 -1 12 -11 12 -24 0 -31
-52 -54 -86 -38 -17 8 -24 19 -24 40 0 31 -7 30 98 22z m244 -41 c-37 -36 -42
-37 -42 -6 0 19 6 26 28 29 15 2 31 5 35 6 5 0 -5 -12 -21 -29z m-842 -15 c0
-8 -7 -15 -15 -15 -8 0 -15 7 -15 15 0 8 7 15 15 15 8 0 15 -7 15 -15z m1340
-11 c6 -14 10 -36 10 -50 0 -22 -4 -24 -43 -24 -24 0 -48 -5 -54 -11 -16 -16
-33 -2 -33 28 0 32 53 83 86 83 17 0 27 -8 34 -26z m-702 -135 c9 -13 10 -24
4 -32 -5 -7 -12 -24 -16 -39 -7 -32 -74 -68 -87 -47 -10 17 1 48 22 60 21 11
26 58 8 76 -7 7 -9 19 -5 28 5 15 9 14 33 -5 15 -11 33 -30 41 -41z m347 42
c3 -5 1 -12 -5 -16 -5 -3 -10 1 -10 9 0 18 6 21 15 7z m350 -231 c0 -8 -8 -16
-17 -18 -13 -2 -18 3 -18 18 0 15 5 20 18 18 9 -2 17 -10 17 -18z m716 -18
c10 -25 1 -28 -26 -9 -10 8 -15 19 -11 26 11 17 28 9 37 -17z m-231 3 c0 -8
-9 -15 -20 -15 -22 0 -27 15 -7 23 21 9 27 7 27 -8z m-240 -40 c25 -30 -18
-48 -55 -22 -10 8 -15 19 -11 25 10 17 51 15 66 -3z m-1125 -25 c3 -5 -1 -10
-9 -10 -9 0 -16 5 -16 10 0 6 4 10 9 10 6 0 13 -4 16 -10z m-9 -75 c9 -14 25
-25 35 -25 10 0 21 -5 25 -11 3 -6 19 -9 34 -5 18 3 33 0 40 -9 16 -19 20 -65
6 -65 -6 0 4 -9 22 -20 36 -22 39 -32 16 -54 -26 -27 -44 -20 -44 18 0 19 -5
38 -10 41 -17 11 -40 -15 -40 -44 0 -15 -5 -32 -12 -39 -9 -9 -6 -18 15 -40
32 -34 25 -45 -36 -56 -48 -9 -77 0 -77 23 0 23 18 38 50 43 22 3 25 7 23 42
-3 50 -9 56 -58 56 -89 1 -104 -1 -110 -10 -10 -16 -23 -12 -35 9 -14 27 -4
47 32 62 34 14 51 47 35 68 -9 10 -7 17 8 27 29 22 63 17 81 -11z m694 10 c0
-8 -4 -15 -9 -15 -13 0 -22 16 -14 24 11 11 23 6 23 -9z m-128 -34 c-8 -4 -13
-11 -13 -15 4 -28 -1 -57 -12 -68 -14 -14 -17 -72 -4 -84 4 -5 17 -3 27 4 24
15 50 16 50 2 0 -19 38 -10 43 11 4 15 12 20 29 17 19 -2 23 -9 23 -42 1 -38
22 -66 52 -66 7 0 13 -5 13 -11 0 -6 10 -9 23 -7 12 2 20 7 17 13 -3 5 8 12
25 15 21 4 31 12 35 30 4 17 14 26 30 28 14 2 29 10 33 18 11 19 27 18 27 -1
0 -8 8 -15 18 -16 10 0 12 -3 5 -6 -10 -3 -10 -10 -2 -25 6 -11 8 -30 5 -43
-4 -16 -1 -27 10 -33 22 -12 14 -46 -13 -50 -14 -2 -23 3 -28 17 -8 27 -21 27
-28 1 -3 -11 -20 -26 -38 -34 -29 -12 -37 -12 -62 1 -22 11 -32 12 -43 3 -7
-7 -24 -10 -36 -7 -13 4 -29 2 -37 -2 -9 -6 -31 0 -61 15 -26 13 -50 24 -53
24 -3 0 -18 5 -34 12 -15 6 -49 12 -74 12 -73 1 -99 36 -58 77 14 14 19 28 15
44 -9 34 10 74 39 85 20 8 25 16 25 43 0 40 5 47 39 47 18 0 22 -3 13 -9z
m-622 -195 c0 -8 -4 -17 -9 -21 -12 -7 -24 12 -16 25 9 15 25 12 25 -4z m1207
-32 c3 -8 1 -25 -5 -37 -5 -12 -13 -30 -16 -39 -3 -10 -9 -18 -13 -18 -37 2
-65 82 -35 99 26 16 62 13 69 -5z m-1397 2 c0 -15 -14 -35 -21 -30 -15 9 -10
34 6 34 8 0 15 -2 15 -4z m864 -109 c24 -18 17 -47 -15 -66 -76 -47 -112 -75
-116 -91 -7 -25 -29 -32 -43 -14 -10 11 -10 17 0 29 10 11 9 18 -4 30 -21 21
-21 79 1 96 9 8 41 14 74 15 32 0 62 3 65 7 10 10 18 9 38 -6z m-1042 -34 c21
-6 31 -32 19 -47 -6 -6 -23 -13 -40 -14 -22 -2 -31 3 -36 18 -10 31 4 63 23
55 10 -4 25 -9 34 -12z m-136 -18 c4 -8 1 -22 -6 -30 -17 -20 -94 -30 -129
-15 -41 17 -30 40 18 38 21 0 46 4 57 10 27 16 54 15 60 -3z m450 -22 c3 -10
9 -25 14 -34 13 -24 2 -29 -28 -13 -36 19 -44 18 -65 -7 -15 -17 -21 -18 -33
-8 -8 7 -14 22 -12 33 2 16 11 22 38 24 19 2 39 8 45 13 15 15 35 10 41 -8z
m1327 3 c11 -29 -39 -55 -77 -40 -19 7 -21 40 -3 47 26 11 75 7 80 -7z m-1521
-37 c17 -12 27 -27 24 -35 -3 -8 -1 -14 4 -14 6 0 10 -8 10 -18 0 -10 5 -23
12 -30 8 -8 5 -14 -16 -22 -21 -7 -39 -6 -78 6 -57 19 -67 34 -45 67 10 15 12
29 7 38 -6 8 -4 16 3 21 21 13 48 9 79 -13z m922 -122 c19 -19 -1 -42 -42 -50
-17 -4 -45 -10 -61 -13 -53 -11 -51 30 5 67 31 21 75 19 98 -4z m531 -7 c3 -5
2 -10 -4 -10 -5 0 -13 5 -16 10 -3 6 -2 10 4 10 5 0 13 -4 16 -10z m-717 -77
c2 -7 -3 -13 -12 -13 -8 0 -20 -9 -26 -19 -6 -13 -17 -17 -30 -14 -28 7 -33
19 -20 43 9 17 19 20 47 18 20 -2 38 -9 41 -15z m-729 -12 c16 -11 -2 -51 -24
-51 -37 0 -60 32 -38 53 9 10 45 8 62 -2z m444 -32 c6 -9 7 -25 3 -35 -4 -12
-10 -14 -14 -8 -4 6 -17 14 -29 18 -23 7 -30 26 -16 40 12 11 45 2 56 -15z
m-277 -20 c7 -12 -15 -31 -28 -23 -4 3 -8 12 -8 20 0 17 26 19 36 3z"/>
<path d="M5195 4490 c-4 -12 -5 -24 -2 -27 3 -2 8 5 12 17 4 12 5 24 2 27 -3
2 -8 -5 -12 -17z"/>
<path d="M4038 4462 c-21 -14 -38 -31 -38 -38 0 -7 -8 -17 -17 -23 -17 -9 -16
-11 4 -30 25 -23 33 -26 33 -10 0 5 18 33 39 62 35 46 43 69 23 66 -4 -1 -24
-13 -44 -27z"/>
<path d="M865 4430 c-3 -5 -1 -10 4 -10 6 0 11 5 11 10 0 6 -2 10 -4 10 -3 0
-8 -4 -11 -10z"/>
<path d="M2591 4417 c-6 -8 -23 -18 -36 -21 -24 -6 -36 -26 -16 -26 6 0 16
-12 23 -27 19 -40 47 -36 66 10 14 36 14 40 -5 58 -17 17 -21 18 -32 6z"/>
<path d="M4720 4419 c0 -5 5 -7 10 -4 6 3 10 8 10 11 0 2 -4 4 -10 4 -5 0 -10
-5 -10 -11z"/>
<path d="M1200 4383 c0 -25 1 -26 16 -11 9 9 13 21 10 27 -13 20 -26 11 -26
-16z"/>
<path d="M2687 4404 c-4 -4 -7 -15 -7 -25 0 -19 33 -36 38 -20 2 6 13 11 24
11 13 0 18 6 16 18 -3 17 -57 30 -71 16z"/>
<path d="M4088 4297 c-39 -36 -44 -65 -17 -90 l22 -21 18 23 c11 13 19 32 19
42 0 10 7 19 15 19 12 0 13 4 3 25 -14 31 -28 31 -60 2z"/>
<path d="M2413 4289 c-14 -14 4 -59 23 -59 7 0 18 -2 26 -5 7 -3 20 -1 28 5
12 7 9 14 -15 39 -33 33 -45 37 -62 20z"/>
<path d="M2294 4274 c-17 -7 -36 -20 -43 -28 -8 -10 -29 -16 -52 -16 -28 0
-39 -4 -39 -15 0 -8 6 -15 14 -15 7 0 19 -7 27 -16 9 -11 22 -14 46 -10 18 3
50 8 71 11 69 11 82 15 82 30 0 9 -10 15 -25 15 -18 0 -28 8 -37 29 -12 27
-14 28 -44 15z"/>
<path d="M4471 4247 c-8 -15 -11 -30 -8 -34 12 -12 29 14 25 38 -3 22 -3 22
-17 -4z"/>
<path d="M931 4234 c-36 -30 -39 -44 -12 -44 11 0 23 -4 26 -10 8 -13 48 -13
62 1 17 17 -13 78 -39 79 -3 0 -20 -12 -37 -26z"/>
<path d="M2533 4233 c9 -9 19 -14 23 -11 10 10 -6 28 -24 28 -15 0 -15 -1 1
-17z"/>
<path d="M2650 4243 c-63 -7 -66 -11 -35 -43 28 -30 68 -39 80 -20 3 6 17 10
31 10 13 0 24 6 24 13 0 16 -36 48 -53 45 -6 0 -28 -3 -47 -5z"/>
<path d="M1845 4201 c-7 -12 31 -25 45 -16 6 4 8 11 5 16 -8 12 -42 12 -50 0z"/>
<path d="M435 4167 c-11 -43 15 -75 67 -79 37 -3 43 -6 43 -26 0 -29 -51 -64
-64 -44 -6 9 -12 8 -26 -8 -18 -20 -18 -20 18 -20 41 0 49 -16 15 -29 l-23 -8
25 -8 c32 -10 159 -12 153 -2 -2 4 -14 7 -26 7 -20 1 -20 2 6 16 l28 15 -21
26 c-11 14 -20 32 -20 39 0 7 -7 17 -16 22 -8 5 -21 20 -28 33 -8 17 -20 24
-41 24 -37 0 -57 13 -72 45 l-11 25 -7 -28z"/>
<path d="M3970 4175 c0 -8 4 -15 10 -15 5 0 7 7 4 15 -4 8 -8 15 -10 15 -2 0
-4 -7 -4 -15z"/>
<path d="M4445 4180 c3 -5 8 -10 11 -10 2 0 4 5 4 10 0 6 -5 10 -11 10 -5 0
-7 -4 -4 -10z"/>
<path d="M4259 4036 c-25 -23 -26 -23 -50 -5 -13 10 -30 19 -36 19 -19 0 -16
-27 3 -34 11 -4 15 -16 12 -38 -3 -30 -1 -33 25 -33 20 1 27 -4 28 -20 1 -11
7 0 15 25 8 25 13 52 10 62 -2 10 4 18 15 21 11 3 19 10 19 16 0 17 -13 13
-41 -13z"/>
<path d="M3740 4011 c19 -17 49 -37 67 -46 29 -14 31 -17 20 -45 -6 -16 -18
-32 -25 -35 -8 -3 -62 10 -121 29 -143 46 -321 80 -388 73 -31 -3 -66 -15 -83
-27 -25 -18 -30 -28 -30 -61 0 -23 7 -47 15 -55 8 -9 15 -24 15 -34 0 -28 49
-62 78 -55 38 9 16 -13 -35 -36 -26 -12 -52 -26 -58 -33 -17 -17 -25 -45 -15
-51 6 -4 10 -11 10 -16 0 -6 -5 -7 -12 -3 -8 5 -9 -2 -4 -27 10 -50 40 -104
55 -101 8 2 18 -3 23 -10 6 -10 10 -7 14 10 4 12 11 22 16 22 6 0 8 10 5 21
l-6 21 22 -20 c14 -13 27 -18 35 -13 11 7 10 9 -2 14 -9 4 -16 14 -16 22 0 14
9 16 68 10 37 -4 84 -8 104 -8 29 -2 38 -6 38 -19 0 -13 -8 -17 -35 -14 -19 1
-35 -2 -35 -7 0 -4 -12 -7 -27 -5 -20 2 -29 -2 -31 -14 -2 -12 2 -15 17 -11
12 3 21 1 21 -6 0 -6 -8 -11 -17 -11 -17 -1 -17 -2 1 -15 16 -12 12 -13 -38
-8 -38 4 -56 2 -56 -5 0 -7 12 -15 26 -18 14 -4 23 -12 20 -19 -2 -7 6 -18 20
-25 16 -9 24 -22 24 -41 0 -34 -29 -48 -47 -23 -7 10 -13 12 -13 6 0 -7 -9 -3
-20 8 -16 16 -25 18 -40 10 -27 -14 -25 -21 10 -56 16 -16 30 -37 30 -46 0
-10 5 -18 11 -18 7 0 9 -10 5 -26 -5 -19 -4 -24 5 -18 9 5 10 2 6 -9 -4 -11
-1 -17 8 -17 19 0 19 -11 0 -36 -8 -10 -15 -27 -15 -36 0 -10 -4 -18 -10 -18
-17 0 -11 -25 17 -75 23 -41 28 -46 38 -32 15 20 25 12 26 -22 1 -16 3 -20 6
-9 3 13 17 18 56 20 44 3 52 6 52 23 0 11 -4 24 -10 28 -6 5 -4 7 5 4 27 -7
18 -48 -33 -140 -28 -51 -62 -114 -75 -141 -21 -42 -26 -47 -34 -32 -6 10 -18
26 -27 35 -9 9 -24 28 -33 41 -9 14 -17 20 -17 14 -1 -6 9 -22 20 -35 51 -58
72 -91 62 -97 -6 -4 -13 -27 -17 -52 -4 -25 -15 -59 -25 -75 -27 -46 -33 -81
-16 -95 12 -10 16 -9 19 1 31 92 56 185 56 207 0 16 21 61 46 102 25 41 59
101 75 133 16 32 34 55 39 52 6 -4 7 -12 4 -18 -4 -7 4 -1 16 12 15 15 25 20
28 13 5 -17 31 5 140 122 120 127 154 177 136 194 -7 6 -18 12 -24 12 -5 0
-10 7 -10 16 0 11 -7 14 -30 11 -29 -5 -29 -5 -13 19 18 28 39 30 70 9 14 -10
24 -12 28 -5 8 13 -54 40 -90 40 -25 0 -25 1 -20 58 5 50 17 128 31 198 3 15
14 23 39 27 43 7 82 48 91 93 3 19 2 60 -2 91 -8 52 -12 59 -42 74 -19 8 -48
30 -65 48 -18 18 -61 50 -97 72 -57 35 -61 36 -30 10z m-320 -61 c8 -5 11 -10
5 -10 -5 0 -17 5 -25 10 -8 5 -10 10 -5 10 6 0 17 -5 25 -10z m59 7 c-2 -1
-12 -9 -21 -16 -15 -12 -18 -11 -18 3 0 10 8 16 22 16 12 0 19 -1 17 -3z m91
-41 c0 -2 -7 -7 -16 -10 -8 -3 -12 -2 -9 4 6 10 25 14 25 6z m-125 -15 c3 -5
1 -12 -5 -16 -5 -3 -10 1 -10 9 0 18 6 21 15 7z m-115 -187 c0 -8 -5 -14 -11
-14 -5 0 -7 5 -4 10 3 6 1 10 -5 10 -6 0 -8 5 -5 10 8 13 25 3 25 -16z m94 10
c9 -3 16 -12 16 -20 0 -8 5 -14 11 -14 6 0 4 -7 -5 -15 -16 -16 -56 -21 -56
-6 0 5 -12 14 -27 19 l-28 11 23 7 c18 5 20 9 10 15 -16 10 31 13 56 3z m211
-14 c3 -6 -1 -7 -9 -4 -18 7 -21 14 -7 14 6 0 13 -4 16 -10z m-310 -60 c7 -12
-2 -12 -30 0 -19 8 -19 9 2 9 12 1 25 -3 28 -9z m48 -47 c5 -7 26 -13 49 -13
30 0 39 -3 31 -11 -7 -7 -28 -7 -71 1 -34 7 -71 10 -82 7 -28 -7 -21 14 10 30
25 12 50 7 63 -14z m67 -589 c0 -8 -4 -12 -10 -9 -5 3 -10 10 -10 16 0 5 5 9
10 9 6 0 10 -7 10 -16z m95 -54 c3 -5 1 -10 -4 -10 -6 0 -11 5 -11 10 0 6 2
10 4 10 3 0 8 -4 11 -10z m-169 -486 c-8 -21 -15 -34 -15 -28 -1 15 20 76 25
71 2 -2 -2 -21 -10 -43z"/>
<path d="M2480 3989 c0 -5 5 -7 10 -4 6 3 10 8 10 11 0 2 -4 4 -10 4 -5 0 -10
-5 -10 -11z"/>
<path d="M2850 3946 c0 -2 6 -9 14 -15 10 -9 15 -8 20 4 4 10 -1 15 -14 15
-11 0 -20 -2 -20 -4z"/>
<path d="M3161 3904 c0 -11 3 -14 6 -6 3 7 2 16 -1 19 -3 4 -6 -2 -5 -13z"/>
<path d="M4097 3893 c-13 -12 -7 -54 8 -60 9 -3 24 2 35 12 15 13 17 22 9 36
-10 19 -39 25 -52 12z"/>
<path d="M3133 3883 c-7 -3 -13 -14 -13 -26 0 -21 0 -21 16 1 17 25 16 32 -3
25z"/>
<path d="M4186 3872 c-3 -3 -6 -9 -6 -14 0 -11 37 -10 44 1 6 10 -30 22 -38
13z"/>
<path d="M3126 3784 c-3 -9 -2 -23 4 -32 7 -14 9 -10 10 16 0 35 -5 41 -14 16z"/>
<path d="M2580 3691 c0 -19 26 -48 36 -39 3 3 2 17 -2 32 -7 30 -34 36 -34 7z"/>
<path d="M3997 3663 c-4 -7 -3 -59 2 -100 0 -7 8 -13 16 -13 12 0 13 4 5 19
-16 30 -12 52 10 58 24 6 26 28 4 37 -21 8 -32 8 -37 -1z"/>
<path d="M4013 3535 c-27 -19 -20 -45 12 -45 32 0 51 25 35 45 -16 19 -20 19
-47 0z"/>
<path d="M3360 3516 c0 -2 7 -9 15 -16 12 -10 15 -10 15 4 0 9 -7 16 -15 16
-8 0 -15 -2 -15 -4z"/>
<path d="M6786 3434 c-3 -9 -2 -23 4 -32 7 -14 9 -10 10 16 0 35 -5 41 -14 16z"/>
<path d="M2855 3361 c-6 -11 9 -23 19 -14 9 9 7 23 -3 23 -6 0 -12 -4 -16 -9z"/>
<path d="M4101 3351 c-12 -8 -12 -12 -2 -25 8 -9 18 -16 23 -16 11 0 42 29 37
34 -12 11 -46 14 -58 7z"/>
<path d="M4001 3334 c0 -11 3 -14 6 -6 3 7 2 16 -1 19 -3 4 -6 -2 -5 -13z"/>
<path d="M3250 3278 c0 -7 10 -24 21 -38 15 -18 19 -20 15 -7 -3 10 -6 27 -6
38 0 10 -7 19 -15 19 -8 0 -15 -6 -15 -12z"/>
<path d="M3075 3270 c3 -5 8 -10 11 -10 2 0 4 5 4 10 0 6 -5 10 -11 10 -5 0
-7 -4 -4 -10z"/>
<path d="M3266 3160 c-20 -51 -21 -177 -2 -222 8 -18 18 -46 21 -62 3 -15 8
-26 11 -24 2 3 -5 47 -16 99 -26 123 -26 174 0 196 11 10 20 25 20 35 0 31
-17 20 -34 -22z"/>
<path d="M6005 3149 c-7 -22 7 -39 32 -39 20 0 23 16 7 38 -19 28 -31 28 -39
1z"/>
<path d="M2847 3114 c-11 -11 3 -24 24 -24 11 0 17 4 14 10 -4 6 7 8 27 5 29
-4 30 -4 8 4 -31 11 -65 13 -73 5z"/>
<path d="M5977 3079 c-12 -13 -17 -38 -17 -79 0 -32 -4 -62 -10 -65 -20 -12
-10 -25 19 -25 31 0 35 5 47 73 3 20 8 37 9 37 2 0 16 -5 30 -10 24 -9 26 -8
20 11 -4 13 -2 25 5 29 17 10 2 33 -17 26 -8 -3 -27 1 -42 8 -25 13 -29 13
-44 -5z"/>
<path d="M5920 3064 c0 -8 5 -12 10 -9 6 4 8 11 5 16 -9 14 -15 11 -15 -7z"/>
<path d="M653 3018 c-28 -58 -34 -85 -24 -109 5 -14 7 -37 4 -52 -4 -22 -1
-28 20 -36 32 -12 84 1 103 26 7 10 13 37 12 60 0 24 5 50 12 58 17 21 -2 43
-46 51 -19 3 -37 10 -40 15 -10 16 -30 9 -41 -13z"/>
<path d="M3233 2995 c0 -22 2 -30 4 -17 2 12 2 30 0 40 -3 9 -5 -1 -4 -23z"/>
<path d="M6709 3008 c-3 -15 -2 -33 2 -40 14 -22 10 -58 -8 -77 -10 -11 -39
-22 -66 -26 -31 -5 -52 -14 -62 -28 -27 -38 0 -42 53 -8 57 36 71 38 95 11 24
-28 22 -75 -4 -93 -21 -15 -21 -15 -1 -21 11 -4 23 -13 26 -21 9 -24 33 -17
40 10 4 17 1 31 -8 40 -16 17 -10 54 10 62 8 3 14 17 14 30 0 24 -2 25 -40 20
-46 -6 -47 -4 -20 26 18 18 24 20 40 9 11 -7 20 -9 20 -6 0 11 -42 44 -56 44
-13 0 -20 18 -26 70 l-4 25 -5 -27z"/>
<path d="M3222 2920 c0 -14 2 -19 5 -12 2 6 2 18 0 25 -3 6 -5 1 -5 -13z"/>
<path d="M845 2880 c4 -6 11 -8 16 -5 14 9 11 15 -7 15 -8 0 -12 -5 -9 -10z"/>
<path d="M567 2864 c-9 -9 4 -35 14 -28 5 3 9 12 9 20 0 14 -12 19 -23 8z"/>
<path d="M3300 2830 c0 -8 5 -22 10 -30 9 -13 10 -13 10 0 0 8 -5 22 -10 30
-9 13 -10 13 -10 0z"/>
<path d="M5570 2795 c7 -8 21 -15 31 -15 11 0 19 7 19 15 0 10 -10 15 -31 15
-27 0 -30 -2 -19 -15z"/>
<path d="M0 2566 c0 -119 2 -216 4 -216 16 0 36 14 36 26 0 21 47 36 72 23 26
-14 35 -4 14 17 -9 9 -32 16 -51 17 -26 1 -36 7 -45 26 -10 21 -9 27 6 38 20
14 44 17 44 5 0 -9 40 -35 46 -29 8 7 -18 72 -34 85 -9 6 -24 12 -35 12 -17 0
-47 22 -47 34 0 3 9 6 19 6 30 0 51 11 51 26 0 8 6 14 13 14 18 0 47 -32 47
-52 0 -20 9 -28 25 -21 25 9 -8 84 -46 107 -28 17 -31 17 -49 1 -10 -9 -27
-15 -37 -13 -15 3 -17 12 -15 50 2 25 -2 49 -8 53 -7 4 -10 -63 -10 -209z"/>
<path d="M5620 2745 c0 -8 -14 -17 -37 -21 -70 -12 -81 -44 -17 -44 20 0 44
-5 55 -10 12 -7 19 -7 19 -1 0 17 40 34 53 23 18 -14 100 -25 92 -12 -3 5 -15
10 -25 10 -31 0 -50 11 -50 31 0 22 -28 39 -64 39 -16 0 -26 -6 -26 -15z"/>
<path d="M5931 2714 c0 -11 3 -14 6 -6 3 7 2 16 -1 19 -3 4 -6 -2 -5 -13z"/>
<path d="M5851 2603 c-6 -21 -11 -45 -11 -53 1 -13 2 -13 9 0 10 18 24 90 17
90 -3 0 -10 -17 -15 -37z"/>
<path d="M5941 2554 c0 -11 3 -14 6 -6 3 7 2 16 -1 19 -3 4 -6 -2 -5 -13z"/>
<path d="M4160 2424 c0 -6 7 -19 16 -30 14 -18 14 -18 3 6 -14 31 -19 36 -19
24z"/>
<path d="M1006 2411 c-4 -6 -3 -18 2 -27 6 -11 11 -13 16 -5 4 6 3 18 -2 27
-6 11 -11 13 -16 5z"/>
<path d="M4830 2324 c-19 -8 -129 -47 -245 -86 -209 -70 -295 -104 -295 -117
1 -3 7 -17 14 -31 10 -16 12 -42 9 -77 -4 -36 -2 -53 6 -53 6 0 11 12 11 28 0
20 9 7 34 -50 19 -43 37 -92 41 -110 7 -34 100 -225 153 -314 27 -46 50 -108
67 -179 4 -16 9 -118 10 -225 2 -153 7 -213 23 -280 74 -316 85 -394 79 -573
-4 -130 -6 -141 -35 -197 l-31 -60 193 0 193 0 0 258 c0 212 3 270 17 332 11
44 20 135 23 220 6 145 4 161 -47 550 -6 41 -14 77 -18 80 -14 9 -32 86 -32
136 0 27 -7 81 -15 120 -8 39 -21 134 -29 212 -19 173 -43 314 -61 359 -13 30
-16 32 -41 23 -19 -8 -30 -8 -38 0 -7 7 -3 10 13 10 12 0 19 4 16 10 -3 5 0 7
8 4 8 -3 17 2 20 10 8 19 2 19 -43 0z m-39 -844 c19 -11 25 -43 13 -74 -8 -20
-34 -21 -34 -1 0 8 -4 15 -9 15 -10 0 -21 57 -13 65 8 8 21 6 43 -5z m219 -26
c0 -8 -4 -12 -10 -9 -5 3 -10 10 -10 16 0 5 5 9 10 9 6 0 10 -7 10 -16z m-130
-930 c0 -8 -10 -14 -25 -14 -27 0 -33 18 -13 38 14 14 38 -2 38 -24z m-36 -32
c9 -14 -10 -33 -27 -26 -20 7 -22 20 -4 27 19 8 25 8 31 -1z"/>
<path d="M6390 2325 c-1 -5 -3 -31 -5 -57 -2 -38 1 -46 14 -46 9 0 24 -3 34
-7 15 -6 17 -1 17 39 0 34 -4 46 -15 46 -8 0 -15 -7 -15 -15 0 -29 -19 -15
-23 18 -2 17 -5 28 -7 22z"/>
<path d="M6613 2313 c-22 -8 -14 -30 12 -35 30 -6 42 7 25 27 -13 16 -17 17
-37 8z"/>
<path d="M2190 2300 c0 -5 7 -10 16 -10 8 0 12 5 9 10 -3 6 -10 10 -16 10 -5
0 -9 -4 -9 -10z"/>
<path d="M6641 2234 c0 -11 3 -14 6 -6 3 7 2 16 -1 19 -3 4 -6 -2 -5 -13z"/>
<path d="M5062 2228 c-8 -8 -9 -15 -1 -25 15 -18 36 -16 43 3 12 31 -18 46
-42 22z"/>
<path d="M6625 2140 c-3 -5 -1 -10 4 -10 6 0 11 5 11 10 0 6 -2 10 -4 10 -3 0
-8 -4 -11 -10z"/>
<path d="M5774 2075 c-4 -8 -4 -22 0 -30 3 -8 1 -15 -3 -15 -5 0 -7 -9 -4 -19
3 -10 0 -28 -6 -40 -10 -17 -9 -21 4 -21 9 0 15 6 13 12 -6 17 35 48 61 48 12
0 21 5 21 10 0 6 7 10 15 10 9 0 15 9 15 21 0 18 -5 21 -30 17 -18 -3 -35 1
-41 9 -15 17 -38 17 -45 -2z"/>
<path d="M6671 1970 c-7 -22 -7 -30 2 -31 24 -2 61 3 81 12 14 5 7 7 -24 3
-36 -4 -41 -3 -27 6 23 15 22 40 -2 40 -12 0 -23 -11 -30 -30z"/>
<path d="M6559 1938 c-3 -28 4 -44 32 -76 18 -20 29 -44 29 -62 0 -33 15 -40
25 -11 10 32 -2 88 -24 110 -12 12 -21 28 -21 36 0 18 -39 20 -41 3z"/>
<path d="M460 1838 c-12 -11 -19 -22 -16 -25 9 -10 66 9 66 22 0 22 -27 24
-50 3z"/>
<path d="M408 1740 c-7 -11 -20 -20 -30 -20 -9 0 -20 -9 -23 -20 -8 -25 -32
-26 -38 -2 -2 10 -8 1 -16 -25 -7 -27 -18 -43 -28 -43 -10 0 -14 -6 -10 -20 3
-11 1 -23 -4 -26 -13 -8 -11 -61 2 -70 6 -3 15 -1 19 6 6 9 13 9 28 1 18 -9
23 -8 32 9 8 14 21 20 45 20 28 0 35 4 35 19 0 11 5 23 10 26 14 9 2 25 -14
19 -16 -6 -41 45 -28 58 14 14 61 -19 68 -48 3 -12 12 -25 19 -28 11 -4 12
-13 4 -38 -13 -46 -11 -68 5 -68 8 0 12 -9 11 -22 -4 -34 -4 -34 -16 -18 -7
11 -8 -4 -3 -50 10 -90 7 -163 -10 -266 -8 -49 -15 -111 -15 -139 -1 -48 -9
-103 -18 -117 -7 -13 -52 14 -52 31 0 53 -24 187 -37 212 -8 17 -12 39 -9 50
4 11 2 25 -3 32 -9 11 -23 83 -23 117 0 35 -10 60 -23 60 -18 0 -25 -28 -14
-58 8 -22 23 -107 33 -187 2 -22 12 -67 21 -100 9 -33 18 -76 20 -95 1 -19 7
-59 13 -89 6 -29 11 -73 11 -97 0 -40 -2 -44 -25 -44 -14 0 -25 -4 -25 -10 0
-5 -6 -10 -13 -10 -14 0 -47 -31 -47 -43 0 -16 43 -5 60 15 14 18 21 20 32 10
8 -6 18 -9 21 -6 3 4 12 -6 19 -22 7 -16 17 -32 23 -36 7 -6 6 -10 -1 -15 -7
-5 -15 -51 -18 -105 l-7 -98 31 0 c23 0 30 4 30 20 0 11 4 20 9 20 5 0 12 17
15 38 4 20 9 49 12 63 4 20 0 28 -23 38 -20 9 -23 15 -14 20 9 6 11 20 6 50
-5 33 -4 42 9 47 9 3 16 11 16 18 0 6 17 16 38 23 33 11 39 10 53 -8 14 -19
16 -19 29 -4 8 10 24 21 36 25 16 6 23 20 27 54 7 51 -1 106 -15 106 -5 0 -6
5 -3 10 3 6 3 10 -2 10 -4 0 -14 4 -22 9 -12 8 -12 12 -2 25 8 10 9 16 3 16
-16 0 -26 -21 -24 -52 2 -19 -2 -28 -13 -28 -8 0 -15 5 -15 10 0 6 -20 10 -45
10 -36 0 -45 4 -46 18 -4 63 -1 130 10 217 22 172 20 165 42 165 11 0 22 6 25
14 3 8 12 12 20 9 25 -9 15 27 -11 39 -13 6 -22 15 -19 20 3 4 10 5 16 2 8 -5
9 7 5 37 -3 24 -3 36 0 27 5 -20 18 -23 28 -7 9 14 2 19 -26 23 -72 10 -124
56 -64 56 21 0 25 5 25 31 0 17 5 39 11 50 8 16 7 26 -6 46 -11 16 -14 34 -10
50 4 16 1 29 -6 34 -19 12 -39 -1 -39 -26 0 -12 -6 -28 -14 -34 -19 -16 -48
24 -40 56 7 28 -2 30 -18 3z m132 -395 c0 -26 -14 -33 -25 -15 -9 14 1 40 15
40 5 0 10 -11 10 -25z m-59 -547 c-9 -20 -10 -18 -10 17 0 31 2 36 9 23 6 -10
7 -25 1 -40z m14 -38 c3 -5 1 -10 -4 -10 -6 0 -11 5 -11 10 0 6 2 10 4 10 3 0
8 -4 11 -10z"/>
<path d="M6781 1711 c-7 -5 -11 -15 -9 -22 3 -10 8 -7 17 9 13 24 12 26 -8 13z"/>
<path d="M1 1642 c-1 -47 2 -63 12 -59 12 4 12 10 -2 82 -8 38 -9 36 -10 -23z"/>
<path d="M2815 1460 c3 -5 8 -10 11 -10 2 0 4 5 4 10 0 6 -5 10 -11 10 -5 0
-7 -4 -4 -10z"/>
<path d="M310 1440 c0 -5 5 -10 10 -10 6 0 10 5 10 10 0 6 -4 10 -10 10 -5 0
-10 -4 -10 -10z"/>
<path d="M2993 1395 c0 -22 2 -30 4 -17 2 12 2 30 0 40 -3 9 -5 -1 -4 -23z"/>
<path d="M3001 1295 c-1 -11 -8 -28 -15 -38 -13 -16 -14 -16 -20 5 -6 20 -8
21 -14 6 -5 -13 -11 -15 -22 -8 -22 14 -26 13 -38 -15 -11 -23 -9 -25 26 -35
66 -18 80 -14 87 24 4 18 5 44 2 57 -3 20 -5 20 -6 4z"/>
<path d="M2448 1242 c-15 -2 -34 -12 -42 -23 -10 -15 -15 -17 -19 -7 -4 9 -6
9 -6 -3 -1 -9 17 -30 40 -49 l41 -32 30 36 c24 29 33 34 44 25 9 -7 14 -8 14
-1 0 6 -9 14 -20 17 -11 3 -20 11 -20 17 0 6 -3 8 -7 5 -3 -4 -11 -1 -17 6 -6
7 -23 11 -38 9z"/>
<path d="M2575 1163 c4 -21 9 -50 11 -65 3 -14 0 -29 -5 -33 -6 -3 -11 1 -11
9 0 10 -9 16 -24 16 -52 0 -34 -39 27 -59 34 -12 40 -11 52 6 18 23 19 49 3
56 -7 2 -19 25 -27 51 -17 59 -35 72 -26 19z"/>
<path d="M2325 1168 c5 -17 4 -19 -4 -8 -9 13 -11 13 -15 0 -3 -8 -3 -27 2
-42 7 -26 8 -26 29 -10 12 9 23 31 25 47 2 25 -1 31 -20 33 -21 3 -23 0 -17
-20z m15 -34 c0 -8 -19 -13 -24 -6 -3 5 1 9 9 9 8 0 15 -2 15 -3z"/>
<path d="M40 1135 c-14 -38 -13 -42 14 -42 20 0 23 4 22 30 -2 39 -23 46 -36
12z"/>
<path d="M2480 1111 c0 -5 5 -13 10 -16 6 -3 10 -2 10 4 0 5 -4 13 -10 16 -5
3 -10 2 -10 -4z"/>
<path d="M2391 1084 c0 -11 3 -14 6 -6 3 7 2 16 -1 19 -3 4 -6 -2 -5 -13z"/>
<path d="M595 1080 c-9 -15 22 -60 40 -60 21 0 19 40 -2 56 -22 16 -30 17 -38
4z"/>
<path d="M216 1055 c-3 -8 -1 -15 4 -15 6 0 10 7 10 15 0 8 -2 15 -4 15 -2 0
-6 -7 -10 -15z"/>
<path d="M840 1066 c0 -7 40 -14 44 -7 3 4 -6 8 -20 9 -13 1 -24 0 -24 -2z"/>
<path d="M36 981 c-4 -5 -2 -12 3 -15 5 -4 12 -2 15 3 4 5 2 12 -3 15 -5 4
-12 2 -15 -3z"/>
<path d="M765 949 c-38 -24 -41 -55 -5 -51 73 8 88 23 53 54 -16 14 -21 14
-48 -3z"/>
<path d="M226 931 c-4 -7 -5 -15 -2 -18 9 -9 19 4 14 18 -4 11 -6 11 -12 0z"/>
<path d="M152 860 c7 -11 16 -16 21 -11 12 12 0 31 -19 31 -12 0 -12 -3 -2
-20z"/>
<path d="M4395 810 c-3 -6 1 -7 9 -4 9 3 16 2 16 -4 0 -22 -75 -31 -83 -9 -4
10 -6 10 -6 0 -1 -8 -14 -13 -31 -13 -21 0 -30 -5 -30 -16 0 -9 -9 -27 -20
-41 -25 -33 -17 -44 10 -15 26 28 27 28 22 -6 -9 -67 -283 -191 -423 -192 -41
0 -99 -26 -179 -81 -32 -22 -89 -53 -126 -70 -38 -17 -80 -42 -94 -55 -40 -37
-103 -54 -199 -54 -110 0 -158 14 -198 57 -28 29 -32 31 -25 11 12 -34 15
-111 4 -104 -5 3 -8 -10 -5 -33 3 -21 0 -62 -7 -92 -16 -80 -16 -81 -2 -86 8
-3 12 6 12 29 0 18 3 43 6 56 7 24 29 30 37 10 3 -7 6 -3 6 9 1 15 -3 21 -13
17 -10 -4 -16 4 -21 25 -7 32 8 71 28 71 20 0 38 -38 31 -65 -4 -15 -2 -25 4
-25 6 0 12 10 14 22 4 26 26 35 34 14 6 -16 -16 -76 -28 -76 -3 0 -9 -8 -11
-17 -3 -11 -5 -6 -6 11 -2 45 -12 24 -16 -33 l-4 -51 94 0 c89 0 94 1 98 23
l4 22 8 -22 c4 -13 11 -23 16 -23 5 0 6 7 3 15 -4 8 -1 15 5 15 14 0 15 65 1
90 -11 20 11 47 30 35 6 -4 23 -3 38 3 15 5 47 15 72 23 25 7 59 23 76 35 40
30 125 42 142 21 10 -12 6 -16 -30 -22 -24 -5 -48 -9 -55 -9 -6 -1 -15 -4 -18
-8 -12 -12 34 -18 147 -21 93 -3 110 -6 122 -23 13 -17 12 -21 -4 -36 -11 -10
-25 -15 -33 -12 -19 7 -97 -14 -97 -26 0 -5 16 -6 35 -3 38 6 48 -9 18 -26
-14 -8 -5 -10 37 -11 39 0 51 -3 40 -10 -8 -5 -27 -10 -42 -10 -15 0 -30 -4
-33 -10 -4 -7 52 -10 159 -10 91 0 166 4 166 9 0 5 -10 16 -22 24 -20 14 -21
16 -5 16 10 1 28 -10 41 -24 21 -23 31 -25 103 -25 l80 0 -11 49 c-13 55 -25
73 -80 113 -50 36 -56 35 -56 -4 0 -29 -5 -35 -43 -50 -61 -26 -71 -23 -97 25
-13 23 -33 54 -44 69 -11 15 -18 29 -15 31 2 2 46 16 97 31 102 30 206 43 216
27 3 -5 13 -49 21 -98 18 -106 52 -187 71 -169 42 36 42 36 73 18 17 -9 31
-23 31 -29 0 -8 14 -13 35 -13 l35 0 0 63 c-1 34 -6 94 -11 132 -6 39 -11 85
-11 103 0 17 -4 32 -9 32 -5 0 -9 10 -9 23 0 18 2 19 11 7 8 -11 9 -8 4 15 -4
17 -7 62 -7 102 0 78 0 79 -62 82 -46 2 -44 11 3 11 49 0 59 15 43 66 -10 33
-10 34 16 28 l27 -5 -27 21 c-17 13 -28 31 -28 46 0 13 -6 24 -12 24 -9 0 -8
4 2 10 13 9 11 14 -13 35 -30 27 -42 30 -52 15z m25 -115 c0 -12 -7 -25 -15
-28 -17 -7 -30 9 -15 18 5 3 10 15 10 26 0 11 5 17 10 14 6 -3 10 -17 10 -30z
m-620 -250 c0 -21 -5 -35 -12 -35 -7 0 -33 -16 -57 -35 -25 -20 -51 -33 -59
-30 -7 3 -27 5 -43 5 -16 0 -29 4 -29 8 0 8 133 92 145 92 4 0 13 7 21 15 24
24 34 18 34 -20z m640 -5 c0 -5 -4 -10 -10 -10 -5 0 -10 5 -10 10 0 6 5 10 10
10 6 0 10 -4 10 -10z m30 -36 c0 -2 -9 -4 -20 -4 -11 0 -20 4 -20 9 0 5 9 7
20 4 11 -3 20 -7 20 -9z m-644 -49 c6 -19 7 -35 3 -35 -5 0 -9 5 -9 10 0 6 -5
10 -11 10 -6 0 -8 -7 -5 -16 5 -12 2 -15 -10 -10 -8 3 -19 6 -24 6 -4 0 -11 7
-14 16 -5 13 -2 15 14 11 11 -3 18 -1 15 4 -6 8 14 38 25 39 3 0 10 -16 16
-35z m567 8 c-7 -2 -21 -2 -30 0 -10 3 -4 5 12 5 17 0 24 -2 18 -5z m-115 -39
c-3 -14 -5 -12 -10 9 -3 19 -2 25 4 19 6 -6 8 -18 6 -28z m206 10 c10 -25 7
-29 -19 -29 -17 0 -24 4 -20 13 3 8 5 18 5 23 0 15 27 10 34 -7z m-7 -101 c-3
-10 -5 -4 -5 12 0 17 2 24 5 18 2 -7 2 -21 0 -30z m20 15 c-3 -8 -6 -5 -6 6
-1 11 2 17 5 13 3 -3 4 -12 1 -19z m8 -72 c0 -28 -10 -26 -18 4 -3 11 0 20 6
20 7 0 12 -11 12 -24z m-1302 -1 c-3 -9 -8 -14 -10 -11 -3 3 -2 9 2 15 9 16
15 13 8 -4z m98 -68 c-8 -8 -11 -7 -11 4 0 20 13 34 18 19 3 -7 -1 -17 -7 -23z
m-81 -6 c0 -6 -5 -13 -11 -16 -6 -4 -8 -13 -5 -21 4 -9 -4 -18 -20 -24 -37
-14 -43 -12 -37 10 9 33 73 77 73 51z m1287 -13 c-3 -8 -6 -5 -6 6 -1 11 2 17
5 13 3 -3 4 -12 1 -19z m10 -65 c-3 -10 -5 -5 -5 12 0 17 2 24 5 18 2 -7 2
-21 0 -30z m-1387 1 c0 -8 -5 -12 -10 -9 -6 4 -8 11 -5 16 9 14 15 11 15 -7z"/>
<path d="M72 790 c-13 -12 -22 -33 -22 -50 0 -31 17 -39 37 -19 6 6 17 9 25 6
9 -4 5 -8 -9 -12 -14 -5 -23 -15 -23 -29 l-1 -21 -18 23 c-11 12 -29 22 -40
22 -46 0 -13 -74 42 -93 22 -8 22 -22 -1 -44 -10 -10 -23 -30 -30 -45 -6 -16
-16 -28 -22 -28 -5 0 -10 -22 -10 -50 0 -36 4 -50 14 -50 7 0 27 -3 44 -6 28
-6 29 -4 25 20 -3 14 -9 26 -14 26 -5 0 -9 7 -9 16 0 9 5 14 12 12 12 -4 42
-138 33 -147 -3 -2 -11 1 -17 7 -17 17 -21 15 -51 -12 -18 -17 -22 -27 -14
-35 8 -8 6 -16 -6 -29 -21 -22 -22 -52 -3 -52 16 0 48 -45 39 -54 -4 -3 -17 1
-30 9 l-23 15 0 -85 c0 -64 3 -85 13 -85 8 0 19 12 25 26 14 29 36 23 26 -8
-5 -16 -2 -19 18 -16 25 3 28 27 12 78 -7 23 -6 24 10 11 23 -19 25 -14 18 49
-6 49 -10 55 -32 58 -48 6 -50 10 -18 44 28 30 31 31 43 15 7 -10 21 -72 31
-138 16 -102 21 -119 37 -119 10 0 16 4 13 9 -3 5 -8 42 -11 82 -3 41 -10 89
-15 107 -5 18 -8 59 -7 92 1 32 -1 54 -4 48 -3 -5 -9 9 -13 31 -3 23 -10 41
-14 41 -7 0 -32 77 -32 99 0 5 8 12 18 14 10 3 6 5 -11 6 -36 1 -25 21 12 21
15 0 36 7 47 15 18 14 18 16 2 29 -23 17 -23 31 0 48 22 17 42 53 42 75 0 22
-43 43 -72 35 -14 -3 -19 -2 -14 7 10 15 -2 51 -18 51 -7 0 -22 -9 -34 -20z
m108 -62 c0 -13 -23 -5 -28 10 -2 7 2 10 12 6 9 -3 16 -11 16 -16z"/>
<path d="M2315 790 c3 -5 10 -10 16 -10 5 0 9 5 9 10 0 6 -7 10 -16 10 -8 0
-12 -4 -9 -10z"/>
<path d="M4235 790 c-3 -6 1 -7 9 -4 18 7 21 14 7 14 -6 0 -13 -4 -16 -10z"/>
<path d="M2348 758 c5 -5 16 -8 23 -6 8 3 3 7 -10 11 -17 4 -21 3 -13 -5z"/>
<path d="M730 740 c6 -11 13 -20 15 -20 3 0 5 9 5 20 0 11 -7 20 -15 20 -13 0
-14 -4 -5 -20z"/>
<path d="M804 752 c-6 -4 -7 -18 -4 -32 6 -21 8 -22 14 -8 10 23 4 49 -10 40z"/>
<path d="M2290 740 c0 -5 5 -10 11 -10 5 0 7 5 4 10 -3 6 -8 10 -11 10 -2 0
-4 -4 -4 -10z"/>
<path d="M616 694 c-21 -21 -20 -24 7 -24 16 0 23 6 24 20 2 24 -10 26 -31 4z"/>
<path d="M2426 660 c7 -48 14 -65 14 -34 0 12 3 15 8 7 4 -6 7 8 7 31 0 33 -4
42 -18 42 -15 0 -17 -6 -11 -46z"/>
<path d="M2330 670 c0 -19 3 -21 12 -12 9 9 9 15 0 24 -9 9 -12 7 -12 -12z"/>
<path d="M4530 670 c0 -11 31 -42 36 -37 3 2 2 11 -2 20 -6 17 -34 31 -34 17z"/>
<path d="M1992 632 c-15 -10 3 -29 61 -67 27 -18 39 -21 42 -12 8 21 -2 52
-15 49 -7 -2 -19 6 -27 18 -15 21 -39 26 -61 12z"/>
<path d="M230 610 c-8 -5 -11 -12 -7 -16 4 -4 13 -2 19 4 15 15 7 24 -12 12z"/>
<path d="M2441 555 c-1 -39 -12 -68 -25 -66 -18 3 -19 -1 -3 -10 10 -6 20 -9
22 -7 11 10 21 86 14 103 -6 15 -8 10 -8 -20z"/>
<path d="M234 565 c5 -14 1 -16 -36 -19 -14 -1 -28 -16 -28 -28 0 -15 31 -8
37 8 3 9 12 13 21 9 16 -6 55 28 45 39 -4 3 -15 6 -26 6 -13 0 -17 -5 -13 -15z"/>
<path d="M1987 573 c-13 -12 -7 -22 13 -20 11 1 20 7 20 14 0 14 -22 18 -33 6z"/>
<path d="M2590 551 c0 -11 29 -35 35 -29 2 2 -4 12 -15 21 -11 9 -20 13 -20 8z"/>
<path d="M2780 545 c-6 -8 -9 -23 -5 -36 8 -25 20 -15 29 24 7 29 -4 36 -24
12z"/>
<path d="M2040 540 c0 -6 -5 -8 -10 -5 -6 3 -17 -1 -26 -10 -15 -15 -15 -17 5
-22 11 -3 21 -9 21 -14 0 -15 -20 -10 -42 11 -24 22 -56 29 -38 8 37 -45 80
-107 79 -114 -4 -16 34 -70 58 -81 20 -10 23 -9 23 8 0 12 5 16 15 13 8 -4 15
-17 15 -31 0 -18 4 -24 15 -19 8 3 15 2 15 -3 0 -4 7 -8 15 -8 8 0 15 6 15 12
0 33 -26 134 -42 163 -10 18 -18 41 -18 52 0 11 -4 20 -9 20 -5 0 -12 8 -14
18 -3 10 -5 6 -6 -11 -2 -46 -50 -121 -67 -104 -10 10 7 47 21 47 7 0 16 7 19
16 10 25 7 34 -9 28 -9 -4 -15 0 -15 9 0 9 -4 19 -10 22 -5 3 -10 1 -10 -5z"/>
<path d="M2330 539 c0 -5 -4 -7 -10 -4 -5 3 -10 1 -10 -4 0 -6 7 -11 15 -11 8
0 15 7 15 15 0 8 -2 15 -5 15 -3 0 -5 -5 -5 -11z"/>
<path d="M2481 530 c-1 -3 -5 -23 -7 -45 -3 -22 -14 -66 -26 -97 -12 -35 -18
-67 -14 -83 11 -44 46 -26 46 25 0 10 9 20 20 23 11 3 18 1 15 -3 -3 -5 -1
-11 5 -15 5 -3 10 -17 10 -31 0 -14 5 -35 11 -46 9 -17 8 -23 -5 -30 -20 -11
-21 -32 -1 -24 8 3 22 9 30 12 10 4 18 -2 23 -16 l8 -21 24 23 c14 14 41 31
60 38 19 8 41 20 49 28 8 7 25 21 38 29 33 22 18 28 -69 31 -102 4 -152 17
-185 50 -21 22 -27 36 -25 60 3 31 -2 102 -7 92z m136 -272 c-3 -8 -6 -5 -6 6
-1 11 2 17 5 13 3 -3 4 -12 1 -19z"/>
<path d="M2750 501 c0 -5 5 -13 10 -16 6 -3 10 -2 10 4 0 5 -4 13 -10 16 -5 3
-10 2 -10 -4z"/>
<path d="M2900 468 c0 -19 2 -20 10 -8 13 19 13 30 0 30 -5 0 -10 -10 -10 -22z"/>
<path d="M264 455 c4 -35 20 -49 40 -38 15 8 15 12 -4 36 -27 34 -39 34 -36 2z"/>
<path d="M2230 472 c0 -5 7 -13 16 -16 10 -4 14 -1 12 6 -5 15 -28 23 -28 10z"/>
<path d="M2366 440 c7 -43 -13 -79 -34 -58 -6 6 -12 6 -17 -1 -9 -15 15 -36
42 -38 16 -1 20 3 16 14 -3 8 -2 18 3 22 11 7 34 57 34 71 0 6 -7 10 -15 10
-8 0 -15 5 -15 10 0 6 -5 10 -10 10 -6 0 -8 -15 -4 -40z"/>
<path d="M1885 460 c3 -5 8 -10 11 -10 2 0 4 5 4 10 0 6 -5 10 -11 10 -5 0 -7
-4 -4 -10z"/>
<path d="M2825 439 c5 -7 3 -10 -6 -7 -20 7 -46 -21 -30 -32 16 -9 47 -2 60
14 7 8 4 16 -11 25 -14 9 -18 9 -13 0z"/>
<path d="M1910 429 c0 -6 -7 -8 -17 -5 -15 6 -15 4 2 -14 22 -24 29 -26 21 -5
-3 8 -1 15 4 15 6 0 10 -6 10 -13 0 -13 39 -41 47 -34 6 7 -47 67 -59 67 -4 0
-8 -5 -8 -11z"/>
<path d="M184 401 c3 -18 6 -37 6 -42 0 -5 7 -6 15 -3 20 8 19 24 -6 54 l-21
25 6 -34z"/>
<path d="M2962 391 c-44 -37 -90 -161 -65 -175 17 -9 88 10 102 28 15 20 21
119 8 148 l-12 27 -33 -28z"/>
<path d="M230 355 c0 -8 5 -15 10 -15 6 0 10 -10 10 -22 0 -15 3 -19 10 -12 8
8 7 19 -1 37 -13 29 -29 36 -29 12z"/>
<path d="M462 350 c-17 -27 -16 -30 14 -30 19 0 25 4 20 15 -3 8 -1 15 4 15 6
0 10 5 10 10 0 18 -35 11 -48 -10z"/>
<path d="M1073 335 l-23 -12 26 -12 c31 -14 37 -11 27 16 -7 16 -11 17 -30 8z"/>
<path d="M215 310 c3 -5 10 -10 16 -10 5 0 9 5 9 10 0 6 -7 10 -16 10 -8 0
-12 -4 -9 -10z"/>
<path d="M1935 310 c3 -5 11 -10 16 -10 6 0 7 5 4 10 -3 6 -11 10 -16 10 -6 0
-7 -4 -4 -10z"/>
<path d="M2025 311 c-3 -5 4 -13 16 -16 28 -9 36 1 10 14 -12 7 -22 7 -26 2z"/>
<path d="M1170 292 c0 -18 22 -62 32 -62 16 0 8 37 -12 55 -11 10 -20 13 -20
7z"/>
<path d="M465 270 c-11 -17 4 -60 20 -60 8 0 15 7 15 15 0 8 7 15 16 15 9 0
14 7 12 18 -4 20 -52 29 -63 12z"/>
<path d="M4220 266 c0 -7 -13 -19 -30 -26 -36 -15 -38 -25 -7 -41 12 -7 39
-26 61 -42 32 -25 38 -27 33 -11 -3 10 -8 45 -12 77 -5 47 -10 57 -26 57 -10
0 -19 -6 -19 -14z"/>
<path d="M1120 253 c0 -25 15 -38 25 -22 4 6 0 18 -9 27 -15 15 -16 15 -16 -5z"/>
<path d="M2097 259 c7 -7 15 -10 18 -7 3 3 -2 9 -12 12 -14 6 -15 5 -6 -5z"/>
<path d="M2408 253 c-10 -2 -18 -9 -18 -14 0 -14 20 -11 36 6 16 15 13 16 -18
8z"/>
<path d="M850 234 c0 -14 3 -14 15 -4 8 7 15 14 15 16 0 2 -7 4 -15 4 -8 0
-15 -7 -15 -16z"/>
<path d="M379 222 c-14 -9 -25 -21 -23 -27 1 -5 5 -22 8 -37 6 -28 36 -40 36
-15 1 6 5 31 9 55 9 47 7 49 -30 24z"/>
<path d="M2207 218 c-8 -29 -3 -33 41 -32 46 1 127 35 98 41 -10 3 -22 0 -26
-7 -6 -9 -9 -9 -12 1 -4 11 -12 9 -35 -8 -33 -23 -43 -21 -43 9 0 25 -16 23
-23 -4z"/>
<path d="M1437 214 c-8 -8 1 -24 14 -24 5 0 9 7 9 15 0 15 -12 20 -23 9z"/>
<path d="M316 187 c3 -10 9 -15 12 -12 3 3 0 11 -7 18 -10 9 -11 8 -5 -6z"/>
<path d="M1268 193 c-10 -2 -18 -9 -18 -14 0 -6 8 -5 20 1 11 6 20 13 20 15 0
3 -1 4 -2 4 -2 -1 -11 -3 -20 -6z"/>
<path d="M3074 189 c-3 -6 -2 -15 4 -21 6 -6 11 -2 15 11 5 22 -7 29 -19 10z"/>
<path d="M270 150 c0 -19 3 -21 12 -12 9 9 9 15 0 24 -9 9 -12 7 -12 -12z"/>
<path d="M1436 154 c-9 -23 -8 -24 24 -24 32 0 42 23 14 34 -24 9 -31 7 -38
-10z"/>
<path d="M3805 150 c3 -5 13 -10 21 -10 8 0 14 5 14 10 0 6 -9 10 -21 10 -11
0 -17 -4 -14 -10z"/>
<path d="M3447 140 c-20 -4 -40 -10 -43 -13 -3 -3 -16 -2 -29 3 -29 11 -32 3
-24 -75 3 -33 6 -52 7 -42 1 9 9 17 17 17 8 0 27 13 43 29 16 17 43 32 65 36
20 4 37 11 37 16 0 5 18 9 40 9 55 0 50 16 -6 24 -52 7 -54 7 -107 -4z"/>
<path d="M1550 124 c0 -8 5 -12 10 -9 6 3 10 10 10 16 0 5 -4 9 -10 9 -5 0
-10 -7 -10 -16z"/>
<path d="M3680 120 c0 -6 7 -10 15 -10 8 0 15 2 15 4 0 2 -7 6 -15 10 -8 3
-15 1 -15 -4z"/>
<path d="M211 94 c0 -11 3 -14 6 -6 3 7 2 16 -1 19 -3 4 -6 -2 -5 -13z"/>
<path d="M260 86 c0 -9 5 -16 10 -16 6 0 10 4 10 9 0 6 -4 13 -10 16 -5 3 -10
-1 -10 -9z"/>
<path d="M3063 34 c-19 -19 -16 -34 6 -34 10 0 21 9 24 20 3 11 1 18 -3 15 -5
-3 -10 -1 -12 4 -1 5 -9 3 -15 -5z"/>
<path d="M510 19 c0 -15 7 -19 36 -19 28 0 35 4 32 17 -5 26 -68 28 -68 2z"/>
</g>
</svg>
