<svg width="36" height="36" viewBox="0 0 36 36" fill="none" xmlns="http://www.w3.org/2000/svg">
<path d="M9.37993 2.87187C10.5076 3.12548 11.3381 3.52045 11.966 3.97727C14.726 3.21131 17.924 2.90294 20.9453 3.19936C17.8791 -0.263905 13.6212 -0.684881 9.25748 0.837281C8.20757 1.2035 8.34591 2.66338 9.37993 2.87187Z" fill="#034115"/>
<path d="M4.90187 21.9177C6.99691 20.0894 9.38429 19.6711 11.9978 20.6747C14.4253 21.6369 18.3953 22.7733 22.0156 23.3566C21.7545 22.9459 21.7522 22.9433 21.7345 22.9126C20.7579 21.2154 18.6164 16.8108 19.8163 12.5788C20.5235 10.0849 22.2511 8.07839 24.9513 6.61499C24.9734 6.60262 24.9694 6.60487 25.4076 6.36511C22.1127 5.11849 18.3689 4.93812 14.9077 5.49497C11.7755 5.99601 10.1418 6.78615 8.60768 7.80004C1.14855 12.7237 -0.983318 19.4004 0.391485 25.0047C0.391626 25.0053 0.391836 25.0058 0.391977 25.0063C2.00346 31.5689 8.74089 35.678 9.02691 35.8497C9.18754 35.9461 9.37192 36.0001 9.57851 36.0001C9.87395 36.0001 11.729 35.9376 13.0166 34.421C14.1547 33.0806 14.4786 31.0853 13.9791 28.4905C13.8526 27.8325 13.1423 27.4519 12.5181 27.7251C12.5007 27.7327 10.751 28.4868 8.61731 28.4067C6.05392 28.3102 4.0386 27.076 2.61965 24.736C2.9856 24.0998 3.75293 22.9204 4.90187 21.9177Z" fill="#034115"/>
<path d="M35.9871 21.2149C35.0596 15.172 32.4138 10.2165 27.7551 7.48438C25.298 8.82884 26.1456 8.36541 25.9621 8.4655C23.7771 9.64823 22.3919 11.2256 21.8452 13.1539C20.8687 16.5978 22.7027 20.3613 23.5511 21.841L24.7343 23.702C28.2595 24.0234 31.9173 23.8293 35.0074 22.5062C35.3749 22.3488 35.6365 22.257 35.8345 21.9468C35.9732 21.7291 36.0273 21.4695 35.9871 21.2149ZM28.136 15.6858C27.5277 15.6858 27.0727 15.2 27.0727 14.6314C27.0727 14.0618 27.5286 13.577 28.136 13.577C28.7183 13.577 29.1904 14.0491 29.1904 14.6314C29.1904 15.2137 28.7183 15.6858 28.136 15.6858Z" fill="#034115"/>
</svg>
